<svg xmlns="http://www.w3.org/2000/svg" xmlns:xlink="http://www.w3.org/1999/xlink" width="1344" height="816" viewBox="0 0 1008 612"><clipPath id="a"><path transform="scale(.24)" d="M0 0h4200v2548.8H0z" fill-rule="evenodd"/></clipPath><g clip-path="url(#a)"><path d="M8.64 597.312V14.4a11.492 11.492 0 0 1 .877-4.409 11.492 11.492 0 0 1 2.497-3.737 11.492 11.492 0 0 1 3.737-2.497 11.492 11.492 0 0 1 4.409-.877h967.68a11.491 11.491 0 0 1 4.408.877 11.493 11.493 0 0 1 3.738 2.497 11.488 11.488 0 0 1 2.497 3.737 11.49 11.49 0 0 1 .877 4.409v582.912a11.496 11.496 0 0 1-.877 4.408 11.495 11.495 0 0 1-2.497 3.738 11.49 11.49 0 0 1-3.738 2.497 11.491 11.491 0 0 1-4.408.877H20.16a11.497 11.497 0 0 1-4.409-.877 11.49 11.49 0 0 1-3.737-2.497 11.49 11.49 0 0 1-2.497-3.738 11.493 11.493 0 0 1-.877-4.408z" fill="#e9e9e9"/><symbol id="b"><path transform="matrix(.001 0 0 -.001 -.07 0)" d="M70 0v-710h216c74.667 0 133.667 18.833 177 56.5S528-564 528-498c0 33.333-7.667 62.833-23 88.5s-35 45.833-59 60.5c-24 14.667-48.667 23-74 25l-4-12c47.333 2.667 82.833 14 106.5 34s37.5 52.667 41.5 98L534 0h-86l-17-193c-2-22-7.167-39.833-15.5-53.5-8.333-13.667-21.333-23.667-39-30-17.667-6.333-41.833-9.5-72.5-9.5H156V0H70zm86-370h130c49.333 0 87-11.167 113-33.5s39-53.833 39-94.5c0-41.333-13-73-39-95s-63.667-33-113-33H156v256z"/></symbol><symbol id="c"><path transform="matrix(.001 0 0 -.001 -.09 0)" d="M90 0v-710h432v84H176v229h334v82H176v231h354V0H90z"/></symbol><symbol id="d"><path transform="matrix(.001 0 0 -.001 -.026 0)" d="m26 0 216-710h116L574 0h-92L300-632 118 0H26zm109-202 30-84h270l30 84H135z"/></symbol><symbol id="e"><path transform="matrix(.001 0 0 -.001 -.09 0)" d="M90 0v-710h168c61.333 0 114.833 13.833 160.5 41.5s81 68 106 121S562-430 562-354s-12.5 140.333-37.5 193-60.333 92.667-106 120S319.333 0 258 0H90zm86-84h77c69.333 0 123.167-22.5 161.5-67.5S472-264 472-354s-19.167-157.833-57.5-203.5S322.333-626 253-626h-77v542z"/></symbol><symbol id="f"><path transform="matrix(.001 0 0 -.001 -.05 0)" d="M262-80 128-630h8V0H50v-710h130l140 584h-40l140-584h130V0h-86v-630h8L338-80h-76z"/></symbol><symbol id="g"><path transform="matrix(.001 0 0 -.001 -.238 0)" d="M238-122h124V0H238z"/></symbol><symbol id="h"><path transform="matrix(.001 0 0 -.001 -.04 0)" d="M40 0v-530h77l3 118-10-2c6-39.333 18.833-70.5 38.5-93.5S193.333-542 224-542c31.333 0 55.5 11.333 72.5 34S324-452 328-408h-10c6-41.333 19.5-74 40.5-98s47.5-36 79.5-36c42.667 0 73.667 14.667 93 44s29 78 29 146V0h-84v-340c0-47.333-5-80.5-15-99.5S435.333-468 414-468c-14 0-26.333 4.5-37 13.5-10.667 9-19.167 23.167-25.5 42.5-6.333 19.333-9.5 44-9.5 74V0h-84v-340c0-45.333-4.833-78-14.5-98S218-468 196-468c-14 0-26.333 4.5-37 13.5-10.667 9-19.167 23.167-25.5 42.5-6.333 19.333-9.5 44-9.5 74V0H40z"/></symbol><symbol id="i"><path transform="matrix(.001 0 0 -.001 -.04 .012)" d="M267 12c-46.667 0-87-11.333-121-34s-60.167-54.667-78.5-96S40-208.333 40-265s9.167-105.667 27.5-147 44.5-73.333 78.5-96 74.333-34 121-34c37.333 0 70 8.833 98 26.5s48.333 37.5 61 59.5v-254h84V0h-76l-3-80c-14.667 28.667-36.333 51.167-65 67.5S304.333 12 267 12zm5-80c32 0 59.5-8 82.5-24s40.667-38.833 53-68.5C419.833-190.167 426-225 426-265c0-41.333-6.167-76.667-18.5-106s-30.167-51.833-53.5-67.5c-23.333-15.667-51.333-23.5-84-23.5-43.333 0-77.833 17.5-103.5 52.5S128-326.333 128-265c0 60.667 12.833 108.667 38.5 144S227.333-68 272-68z"/></symbol><use xlink:href="#b" transform="matrix(23.04 0 0 -23.04 56.324 37.44)"/><use xlink:href="#c" transform="matrix(23.04 0 0 -23.04 70.609 37.44)"/><use xlink:href="#d" transform="matrix(23.04 0 0 -23.04 82.958 37.44)"/><use xlink:href="#e" transform="matrix(23.04 0 0 -23.04 98.257 37.44)"/><use xlink:href="#f" transform="matrix(23.04 0 0 -23.04 111.159 37.44)"/><use xlink:href="#c" transform="matrix(23.04 0 0 -23.04 125.905 37.44)"/><use xlink:href="#g" transform="matrix(23.04 0 0 -23.04 143.138 37.44)"/><use xlink:href="#h" transform="matrix(23.04 0 0 -23.04 152.4 37.44)"/><use xlink:href="#i" transform="matrix(23.04 0 0 -23.04 166.225 37.716)"/><path d="M923.328 29.376a10.342 10.342 0 0 1-.79 3.968 10.34 10.34 0 0 1-2.247 3.363 10.345 10.345 0 0 1-3.363 2.248 10.343 10.343 0 0 1-3.968.789 10.346 10.346 0 0 1-3.968-.79 10.342 10.342 0 0 1-3.363-2.247 10.337 10.337 0 0 1-2.248-3.363 10.344 10.344 0 0 1-.789-3.968 10.342 10.342 0 0 1 .79-3.968 10.344 10.344 0 0 1 2.247-3.363 10.342 10.342 0 0 1 3.363-2.248 10.345 10.345 0 0 1 3.968-.789 10.343 10.343 0 0 1 3.968.79 10.343 10.343 0 0 1 3.363 2.247 10.343 10.343 0 0 1 2.248 3.363 10.34 10.34 0 0 1 .789 3.968z" fill="#d43c56"/><path d="M955.584 29.376a10.342 10.342 0 0 1-.79 3.968 10.34 10.34 0 0 1-2.247 3.363 10.346 10.346 0 0 1-3.363 2.248 10.343 10.343 0 0 1-3.968.789 10.344 10.344 0 0 1-3.968-.79 10.347 10.347 0 0 1-4.653-3.818 10.345 10.345 0 0 1-1.747-5.76 10.342 10.342 0 0 1 .79-3.968 10.34 10.34 0 0 1 2.247-3.363 10.342 10.342 0 0 1 3.363-2.248 10.341 10.341 0 0 1 3.968-.789 10.343 10.343 0 0 1 3.968.79 10.343 10.343 0 0 1 3.363 2.247 10.343 10.343 0 0 1 2.248 3.363 10.344 10.344 0 0 1 .789 3.968z" fill="#f37204"/><path d="M987.84 29.376a10.347 10.347 0 0 1-.79 3.968 10.344 10.344 0 0 1-2.247 3.363 10.343 10.343 0 0 1-3.363 2.248 10.342 10.342 0 0 1-3.968.789 10.345 10.345 0 0 1-3.968-.79 10.346 10.346 0 0 1-4.653-3.818 10.337 10.337 0 0 1-1.548-3.737 10.338 10.338 0 0 1 0-4.046 10.344 10.344 0 0 1 1.548-3.737 10.34 10.34 0 0 1 2.86-2.86 10.346 10.346 0 0 1 3.738-1.549 10.344 10.344 0 0 1 4.046 0 10.343 10.343 0 0 1 3.737 1.548 10.346 10.346 0 0 1 3.819 4.653 10.34 10.34 0 0 1 .789 3.968z" fill="#24ac5f"/><path d="M20.16 591.552V61.632a5.746 5.746 0 0 1 .97-3.2 5.746 5.746 0 0 1 2.586-2.122 5.746 5.746 0 0 1 2.204-.438h956.16a5.745 5.745 0 0 1 3.2.97 5.743 5.743 0 0 1 2.121 2.586 5.737 5.737 0 0 1 .439 2.204v529.92a5.745 5.745 0 0 1-.97 3.2 5.75 5.75 0 0 1-3.666 2.45c-.371.073-.746.11-1.124.11H25.92a5.755 5.755 0 0 1-4.79-2.56 5.748 5.748 0 0 1-.97-3.2z" fill="#fff"/><symbol id="j"><path transform="matrix(.001 0 0 -.001 -.238 0)" d="M238 0v-122h124V0H238zm0-386v-122h124v122H238z"/></symbol><use xlink:href="#j" transform="matrix(23.04 0 0 -23.04 71.715 139.968)"/><use xlink:href="#j" transform="matrix(23.04 0 0 -23.04 85.539 139.968)"/><use xlink:href="#j" transform="matrix(23.04 0 0 -23.04 99.363 139.968)"/><use xlink:href="#j" transform="matrix(23.04 0 0 -23.04 113.187 139.968)"/><use xlink:href="#j" transform="matrix(23.04 0 0 -23.04 127.01 139.968)"/><use xlink:href="#j" transform="matrix(23.04 0 0 -23.04 140.835 139.968)"/><use xlink:href="#j" transform="matrix(23.04 0 0 -23.04 154.659 139.968)"/><use xlink:href="#j" transform="matrix(23.04 0 0 -23.04 168.483 139.968)"/><use xlink:href="#j" transform="matrix(23.04 0 0 -23.04 182.307 139.968)"/><use xlink:href="#j" transform="matrix(23.04 0 0 -23.04 196.13 139.968)"/><use xlink:href="#j" transform="matrix(23.04 0 0 -23.04 209.955 139.968)"/><use xlink:href="#j" transform="matrix(23.04 0 0 -23.04 223.779 139.968)"/><use xlink:href="#j" transform="matrix(23.04 0 0 -23.04 237.603 139.968)"/><use xlink:href="#j" transform="matrix(23.04 0 0 -23.04 251.427 139.968)"/><use xlink:href="#j" transform="matrix(23.04 0 0 -23.04 265.25 139.968)"/><use xlink:href="#j" transform="matrix(23.04 0 0 -23.04 279.075 139.968)"/><use xlink:href="#j" transform="matrix(23.04 0 0 -23.04 71.715 169.92)" fill="#020912"/><use xlink:href="#j" transform="matrix(23.04 0 0 -23.04 85.539 169.92)" fill="#020912"/><use xlink:href="#j" transform="matrix(23.04 0 0 -23.04 99.363 169.92)" fill="#020912"/><use xlink:href="#j" transform="matrix(23.04 0 0 -23.04 113.187 169.92)" fill="#020912"/><use xlink:href="#j" transform="matrix(23.04 0 0 -23.04 127.01 169.92)" fill="#020912"/><use xlink:href="#j" transform="matrix(23.04 0 0 -23.04 140.835 169.92)" fill="#020912"/><use xlink:href="#j" transform="matrix(23.04 0 0 -23.04 154.659 169.92)" fill="#020912"/><use xlink:href="#j" transform="matrix(23.04 0 0 -23.04 168.483 169.92)" fill="#020912"/><use xlink:href="#j" transform="matrix(23.04 0 0 -23.04 182.307 169.92)" fill="#020912"/><use xlink:href="#j" transform="matrix(23.04 0 0 -23.04 196.13 169.92)" fill="#020912"/><use xlink:href="#j" transform="matrix(23.04 0 0 -23.04 209.955 169.92)" fill="#020912"/><use xlink:href="#j" transform="matrix(23.04 0 0 -23.04 223.779 169.92)" fill="#020912"/><use xlink:href="#j" transform="matrix(23.04 0 0 -23.04 237.603 169.92)" fill="#020912"/><use xlink:href="#j" transform="matrix(23.04 0 0 -23.04 251.427 169.92)" fill="#020912"/><use xlink:href="#j" transform="matrix(23.04 0 0 -23.04 265.25 169.92)" fill="#020912"/><use xlink:href="#j" transform="matrix(23.04 0 0 -23.04 279.075 169.92)" fill="#020912"/><use xlink:href="#j" transform="matrix(23.04 0 0 -23.04 292.899 169.92)" fill="#020912"/><use xlink:href="#j" transform="matrix(23.04 0 0 -23.04 306.723 169.92)" fill="#020912"/><use xlink:href="#j" transform="matrix(23.04 0 0 -23.04 71.715 199.872)" fill="#051124"/><use xlink:href="#j" transform="matrix(23.04 0 0 -23.04 85.539 199.872)" fill="#051124"/><symbol id="k"><path transform="matrix(.001 0 0 -.001 -.061 -.056)" d="M61-256v-78h478v78H61zM261-56v-478h78v478h-78z"/></symbol><use xlink:href="#k" transform="matrix(23.04 0 0 -23.04 95.284 198.582)" fill="#051124"/><use xlink:href="#k" transform="matrix(23.04 0 0 -23.04 109.108 198.582)" fill="#051124"/><use xlink:href="#j" transform="matrix(23.04 0 0 -23.04 127.01 199.872)" fill="#051124"/><use xlink:href="#j" transform="matrix(23.04 0 0 -23.04 140.835 199.872)" fill="#051124"/><use xlink:href="#j" transform="matrix(23.04 0 0 -23.04 251.427 199.872)" fill="#051124"/><use xlink:href="#j" transform="matrix(23.04 0 0 -23.04 265.25 199.872)" fill="#051124"/><use xlink:href="#j" transform="matrix(23.04 0 0 -23.04 279.075 199.872)" fill="#051124"/><use xlink:href="#k" transform="matrix(23.04 0 0 -23.04 288.82 198.582)" fill="#051124"/><use xlink:href="#k" transform="matrix(23.04 0 0 -23.04 302.644 198.582)" fill="#051124"/><use xlink:href="#j" transform="matrix(23.04 0 0 -23.04 320.546 199.872)" fill="#051124"/><use xlink:href="#j" transform="matrix(23.04 0 0 -23.04 71.715 229.824)" fill="#071a36"/><use xlink:href="#j" transform="matrix(23.04 0 0 -23.04 85.539 229.824)" fill="#071a36"/><use xlink:href="#k" transform="matrix(23.04 0 0 -23.04 95.284 228.534)" fill="#071a36"/><use xlink:href="#k" transform="matrix(23.04 0 0 -23.04 109.108 228.534)" fill="#071a36"/><use xlink:href="#j" transform="matrix(23.04 0 0 -23.04 127.01 229.824)" fill="#071a36"/><use xlink:href="#j" transform="matrix(23.04 0 0 -23.04 140.835 229.824)" fill="#071a36"/><use xlink:href="#j" transform="matrix(23.04 0 0 -23.04 265.25 229.824)" fill="#071a36"/><use xlink:href="#j" transform="matrix(23.04 0 0 -23.04 279.075 229.824)" fill="#071a36"/><use xlink:href="#k" transform="matrix(23.04 0 0 -23.04 288.82 228.534)" fill="#071a36"/><use xlink:href="#k" transform="matrix(23.04 0 0 -23.04 302.644 228.534)" fill="#071a36"/><use xlink:href="#j" transform="matrix(23.04 0 0 -23.04 320.546 229.824)" fill="#071a36"/><use xlink:href="#j" transform="matrix(23.04 0 0 -23.04 334.37 229.824)" fill="#071a36"/><use xlink:href="#k" transform="matrix(23.04 0 0 -23.04 67.636 258.486)" fill="#0a2248"/><use xlink:href="#k" transform="matrix(23.04 0 0 -23.04 81.46 258.486)" fill="#0a2248"/><use xlink:href="#j" transform="matrix(23.04 0 0 -23.04 99.363 259.776)" fill="#0a2248"/><use xlink:href="#j" transform="matrix(23.04 0 0 -23.04 113.187 259.776)" fill="#0a2248"/><use xlink:href="#k" transform="matrix(23.04 0 0 -23.04 122.932 258.486)" fill="#0a2248"/><use xlink:href="#k" transform="matrix(23.04 0 0 -23.04 136.756 258.486)" fill="#0a2248"/><use xlink:href="#k" transform="matrix(23.04 0 0 -23.04 261.172 258.486)" fill="#0a2248"/><use xlink:href="#k" transform="matrix(23.04 0 0 -23.04 274.996 258.486)" fill="#0a2248"/><use xlink:href="#j" transform="matrix(23.04 0 0 -23.04 292.899 259.776)" fill="#0a2248"/><use xlink:href="#j" transform="matrix(23.04 0 0 -23.04 306.723 259.776)" fill="#0a2248"/><use xlink:href="#k" transform="matrix(23.04 0 0 -23.04 316.468 258.486)" fill="#0a2248"/><use xlink:href="#k" transform="matrix(23.04 0 0 -23.04 330.292 258.486)" fill="#0a2248"/><use xlink:href="#k" transform="matrix(23.04 0 0 -23.04 67.636 288.438)" fill="#0c2b5a"/><use xlink:href="#k" transform="matrix(23.04 0 0 -23.04 81.46 288.438)" fill="#0c2b5a"/><use xlink:href="#j" transform="matrix(23.04 0 0 -23.04 99.363 289.728)" fill="#0c2b5a"/><use xlink:href="#j" transform="matrix(23.04 0 0 -23.04 113.187 289.728)" fill="#0c2b5a"/><use xlink:href="#k" transform="matrix(23.04 0 0 -23.04 122.932 288.438)" fill="#0c2b5a"/><use xlink:href="#k" transform="matrix(23.04 0 0 -23.04 136.756 288.438)" fill="#0c2b5a"/><use xlink:href="#k" transform="matrix(23.04 0 0 -23.04 247.348 288.438)" fill="#0c2b5a"/><use xlink:href="#k" transform="matrix(23.04 0 0 -23.04 261.172 288.438)" fill="#0c2b5a"/><use xlink:href="#k" transform="matrix(23.04 0 0 -23.04 274.996 288.438)" fill="#0c2b5a"/><use xlink:href="#j" transform="matrix(23.04 0 0 -23.04 292.899 289.728)" fill="#0c2b5a"/><use xlink:href="#j" transform="matrix(23.04 0 0 -23.04 306.723 289.728)" fill="#0c2b5a"/><use xlink:href="#k" transform="matrix(23.04 0 0 -23.04 316.468 288.438)" fill="#0c2b5a"/><use xlink:href="#j" transform="matrix(23.04 0 0 -23.04 334.37 289.728)" fill="#0c2b5a"/><use xlink:href="#k" transform="matrix(23.04 0 0 -23.04 67.636 318.39)" fill="#0e336c"/><use xlink:href="#k" transform="matrix(23.04 0 0 -23.04 81.46 318.39)" fill="#0e336c"/><symbol id="l"><path transform="matrix(.001 0 0 -.001 -.05 0)" d="m297 0 132-710h72L369 0h-72zM50-197l12-70h448l-12 70H50zM100 0l132-710h72L172 0h-72zM90-440l12-70h448l-12 70H90z"/></symbol><use xlink:href="#l" transform="matrix(23.04 0 0 -23.04 95.031 319.68)" fill="#0e336c"/><use xlink:href="#k" transform="matrix(23.04 0 0 -23.04 109.108 318.39)" fill="#0e336c"/><use xlink:href="#k" transform="matrix(23.04 0 0 -23.04 122.932 318.39)" fill="#0e336c"/><use xlink:href="#k" transform="matrix(23.04 0 0 -23.04 136.756 318.39)" fill="#0e336c"/><use xlink:href="#k" transform="matrix(23.04 0 0 -23.04 150.58 318.39)" fill="#0e336c"/><use xlink:href="#k" transform="matrix(23.04 0 0 -23.04 164.404 318.39)" fill="#0e336c"/><use xlink:href="#j" transform="matrix(23.04 0 0 -23.04 182.307 319.68)" fill="#0e336c"/><use xlink:href="#j" transform="matrix(23.04 0 0 -23.04 196.13 319.68)" fill="#0e336c"/><use xlink:href="#k" transform="matrix(23.04 0 0 -23.04 205.876 318.39)" fill="#0e336c"/><use xlink:href="#k" transform="matrix(23.04 0 0 -23.04 219.7 318.39)" fill="#0e336c"/><use xlink:href="#k" transform="matrix(23.04 0 0 -23.04 233.524 318.39)" fill="#0e336c"/><use xlink:href="#k" transform="matrix(23.04 0 0 -23.04 247.348 318.39)" fill="#0e336c"/><use xlink:href="#l" transform="matrix(23.04 0 0 -23.04 260.919 319.68)" fill="#0e336c"/><use xlink:href="#k" transform="matrix(23.04 0 0 -23.04 274.996 318.39)" fill="#0e336c"/><use xlink:href="#k" transform="matrix(23.04 0 0 -23.04 288.82 318.39)" fill="#0e336c"/><use xlink:href="#k" transform="matrix(23.04 0 0 -23.04 302.644 318.39)" fill="#0e336c"/><use xlink:href="#j" transform="matrix(23.04 0 0 -23.04 320.546 319.68)" fill="#0e336c"/><use xlink:href="#k" transform="matrix(23.04 0 0 -23.04 67.636 348.342)" fill="#113c7f"/><use xlink:href="#k" transform="matrix(23.04 0 0 -23.04 81.46 348.342)" fill="#113c7f"/><use xlink:href="#l" transform="matrix(23.04 0 0 -23.04 95.031 349.632)" fill="#113c7f"/><use xlink:href="#l" transform="matrix(23.04 0 0 -23.04 108.855 349.632)" fill="#113c7f"/><use xlink:href="#k" transform="matrix(23.04 0 0 -23.04 122.932 348.342)" fill="#113c7f"/><use xlink:href="#k" transform="matrix(23.04 0 0 -23.04 136.756 348.342)" fill="#113c7f"/><use xlink:href="#k" transform="matrix(23.04 0 0 -23.04 150.58 348.342)" fill="#113c7f"/><use xlink:href="#k" transform="matrix(23.04 0 0 -23.04 164.404 348.342)" fill="#113c7f"/><use xlink:href="#j" transform="matrix(23.04 0 0 -23.04 182.307 349.632)" fill="#113c7f"/><use xlink:href="#j" transform="matrix(23.04 0 0 -23.04 196.13 349.632)" fill="#113c7f"/><use xlink:href="#k" transform="matrix(23.04 0 0 -23.04 205.876 348.342)" fill="#113c7f"/><use xlink:href="#k" transform="matrix(23.04 0 0 -23.04 219.7 348.342)" fill="#113c7f"/><use xlink:href="#k" transform="matrix(23.04 0 0 -23.04 233.524 348.342)" fill="#113c7f"/><use xlink:href="#k" transform="matrix(23.04 0 0 -23.04 247.348 348.342)" fill="#113c7f"/><use xlink:href="#l" transform="matrix(23.04 0 0 -23.04 260.919 349.632)" fill="#113c7f"/><use xlink:href="#l" transform="matrix(23.04 0 0 -23.04 274.743 349.632)" fill="#113c7f"/><use xlink:href="#k" transform="matrix(23.04 0 0 -23.04 288.82 348.342)" fill="#113c7f"/><use xlink:href="#k" transform="matrix(23.04 0 0 -23.04 302.644 348.342)" fill="#113c7f"/><use xlink:href="#k" transform="matrix(23.04 0 0 -23.04 316.468 348.342)" fill="#113c7f"/><use xlink:href="#k" transform="matrix(23.04 0 0 -23.04 67.636 378.294)" fill="#134491"/><use xlink:href="#k" transform="matrix(23.04 0 0 -23.04 81.46 378.294)" fill="#134491"/><use xlink:href="#l" transform="matrix(23.04 0 0 -23.04 95.031 379.584)" fill="#134491"/><use xlink:href="#l" transform="matrix(23.04 0 0 -23.04 108.855 379.584)" fill="#134491"/><use xlink:href="#k" transform="matrix(23.04 0 0 -23.04 122.932 378.294)" fill="#134491"/><use xlink:href="#k" transform="matrix(23.04 0 0 -23.04 136.756 378.294)" fill="#134491"/><use xlink:href="#k" transform="matrix(23.04 0 0 -23.04 247.348 378.294)" fill="#134491"/><use xlink:href="#k" transform="matrix(23.04 0 0 -23.04 261.172 378.294)" fill="#134491"/><use xlink:href="#k" transform="matrix(23.04 0 0 -23.04 274.996 378.294)" fill="#134491"/><use xlink:href="#l" transform="matrix(23.04 0 0 -23.04 288.567 379.584)" fill="#134491"/><use xlink:href="#l" transform="matrix(23.04 0 0 -23.04 302.391 379.584)" fill="#134491"/><use xlink:href="#k" transform="matrix(23.04 0 0 -23.04 316.468 378.294)" fill="#134491"/><use xlink:href="#k" transform="matrix(23.04 0 0 -23.04 330.292 378.294)" fill="#134491"/><use xlink:href="#k" transform="matrix(23.04 0 0 -23.04 67.636 408.246)" fill="#154da3"/><use xlink:href="#k" transform="matrix(23.04 0 0 -23.04 81.46 408.246)" fill="#154da3"/><use xlink:href="#l" transform="matrix(23.04 0 0 -23.04 95.031 409.536)" fill="#154da3"/><use xlink:href="#l" transform="matrix(23.04 0 0 -23.04 108.855 409.536)" fill="#154da3"/><use xlink:href="#k" transform="matrix(23.04 0 0 -23.04 122.932 408.246)" fill="#154da3"/><use xlink:href="#k" transform="matrix(23.04 0 0 -23.04 136.756 408.246)" fill="#154da3"/><use xlink:href="#k" transform="matrix(23.04 0 0 -23.04 261.172 408.246)" fill="#154da3"/><use xlink:href="#k" transform="matrix(23.04 0 0 -23.04 274.996 408.246)" fill="#154da3"/><use xlink:href="#l" transform="matrix(23.04 0 0 -23.04 288.567 409.536)" fill="#154da3"/><use xlink:href="#l" transform="matrix(23.04 0 0 -23.04 302.391 409.536)" fill="#154da3"/><use xlink:href="#k" transform="matrix(23.04 0 0 -23.04 316.468 408.246)" fill="#154da3"/><use xlink:href="#k" transform="matrix(23.04 0 0 -23.04 330.292 408.246)" fill="#154da3"/><use xlink:href="#l" transform="matrix(23.04 0 0 -23.04 67.383 439.488)" fill="#1855b5"/><use xlink:href="#l" transform="matrix(23.04 0 0 -23.04 81.207 439.488)" fill="#1855b5"/><use xlink:href="#k" transform="matrix(23.04 0 0 -23.04 95.284 438.198)" fill="#1855b5"/><use xlink:href="#k" transform="matrix(23.04 0 0 -23.04 109.108 438.198)" fill="#1855b5"/><use xlink:href="#l" transform="matrix(23.04 0 0 -23.04 122.679 439.488)" fill="#1855b5"/><use xlink:href="#l" transform="matrix(23.04 0 0 -23.04 136.503 439.488)" fill="#1855b5"/><use xlink:href="#l" transform="matrix(23.04 0 0 -23.04 260.919 439.488)" fill="#1855b5"/><use xlink:href="#l" transform="matrix(23.04 0 0 -23.04 274.743 439.488)" fill="#1855b5"/><use xlink:href="#k" transform="matrix(23.04 0 0 -23.04 288.82 438.198)" fill="#1855b5"/><use xlink:href="#k" transform="matrix(23.04 0 0 -23.04 302.644 438.198)" fill="#1855b5"/><use xlink:href="#l" transform="matrix(23.04 0 0 -23.04 316.215 439.488)" fill="#1855b5"/><use xlink:href="#l" transform="matrix(23.04 0 0 -23.04 330.039 439.488)" fill="#1855b5"/><use xlink:href="#l" transform="matrix(23.04 0 0 -23.04 67.383 469.44)" fill="#1a5ec7"/><use xlink:href="#l" transform="matrix(23.04 0 0 -23.04 81.207 469.44)" fill="#1a5ec7"/><use xlink:href="#k" transform="matrix(23.04 0 0 -23.04 95.284 468.15)" fill="#1a5ec7"/><use xlink:href="#k" transform="matrix(23.04 0 0 -23.04 109.108 468.15)" fill="#1a5ec7"/><use xlink:href="#l" transform="matrix(23.04 0 0 -23.04 122.679 469.44)" fill="#1a5ec7"/><use xlink:href="#l" transform="matrix(23.04 0 0 -23.04 136.503 469.44)" fill="#1a5ec7"/><symbol id="m"><path transform="matrix(.001 0 0 -.001 .99 0)" d="m-302 0 132-710h72L-230 0h-72zm-247-197 12-70h448l-12 70h-448zm50 197 132-710h72L-427 0h-72zm-10-440 12-70h448l-12 70h-448zM139 0l132-710h72L211 0h-72zm-247-197 12-70h448l-12 70h-448zM-58 0 74-710h72L14 0h-72zm-10-440 12-70h448l-12 70H-68zM-743 0l132-710h72L-671 0h-72zm-247-197 12-70h448l-12 70h-448zm50 197 132-710h72L-868 0h-72zm-10-440 12-70h448l-12 70h-448z"/></symbol><use xlink:href="#m" transform="matrix(23.04 0 0 -23.04 250.781 469.44)" fill="#1a5ec7"/><use xlink:href="#k" transform="matrix(23.04 0 0 -23.04 288.82 468.15)" fill="#1a5ec7"/><use xlink:href="#k" transform="matrix(23.04 0 0 -23.04 302.644 468.15)" fill="#1a5ec7"/><use xlink:href="#l" transform="matrix(23.04 0 0 -23.04 316.215 469.44)" fill="#1a5ec7"/><use xlink:href="#l" transform="matrix(23.04 0 0 -23.04 330.039 469.44)" fill="#1a5ec7"/><use xlink:href="#m" transform="matrix(23.04 0 0 -23.04 71.07 499.392)" fill="#1d66d9"/><use xlink:href="#m" transform="matrix(23.04 0 0 -23.04 112.541 499.392)" fill="#1d66d9"/><use xlink:href="#m" transform="matrix(23.04 0 0 -23.04 154.013 499.392)" fill="#1d66d9"/><use xlink:href="#m" transform="matrix(23.04 0 0 -23.04 195.485 499.392)" fill="#1d66d9"/><use xlink:href="#m" transform="matrix(23.04 0 0 -23.04 236.957 499.392)" fill="#1d66d9"/><use xlink:href="#m" transform="matrix(23.04 0 0 -23.04 278.43 499.392)" fill="#1d66d9"/><use xlink:href="#l" transform="matrix(23.04 0 0 -23.04 316.215 499.392)" fill="#1d66d9"/><use xlink:href="#m" transform="matrix(23.04 0 0 -23.04 71.07 529.344)" fill="#1f6feb"/><use xlink:href="#m" transform="matrix(23.04 0 0 -23.04 112.541 529.344)" fill="#1f6feb"/><use xlink:href="#m" transform="matrix(23.04 0 0 -23.04 154.013 529.344)" fill="#1f6feb"/><use xlink:href="#m" transform="matrix(23.04 0 0 -23.04 195.485 529.344)" fill="#1f6feb"/><use xlink:href="#m" transform="matrix(23.04 0 0 -23.04 236.957 529.344)" fill="#1f6feb"/><use xlink:href="#m" transform="matrix(23.04 0 0 -23.04 278.43 529.344)" fill="#1f6feb"/><path stroke-width="1.152" fill="none" stroke="#3d444d" d="M8.064 597.312V14.4a12.067 12.067 0 0 1 .92-4.629 12.067 12.067 0 0 1 2.623-3.924 12.067 12.067 0 0 1 3.924-2.622 12.067 12.067 0 0 1 4.629-.921h967.68a12.067 12.067 0 0 1 4.629.92 12.068 12.068 0 0 1 3.924 2.623 12.069 12.069 0 0 1 2.622 3.924 12.066 12.066 0 0 1 .921 4.629v582.912a12.067 12.067 0 0 1-.92 4.629 12.074 12.074 0 0 1-2.623 3.924 12.06 12.06 0 0 1-3.924 2.622 12.061 12.061 0 0 1-4.629.921H20.16a12.063 12.063 0 0 1-4.629-.92 12.067 12.067 0 0 1-3.924-2.623 12.063 12.063 0 0 1-2.622-3.924 12.07 12.07 0 0 1-.921-4.629z"/></g><clipPath id="n"><path transform="scale(.24)" d="M84 74.4h96v96H84z" fill-rule="evenodd"/></clipPath><g clip-path="url(#n)"><path d="M27.36 35.361a.912.912 0 0 1-.622-.234l-5.76-5.04a.934.934 0 0 1-.322-.711.934.934 0 0 1 .322-.711l5.76-5.04a.91.91 0 0 1 .685-.232.91.91 0 0 1 .649.32.91.91 0 0 1 .231.686.91.91 0 0 1-.32.648l-4.948 4.329 4.947 4.329c.149.13.247.29.295.48a.924.924 0 0 1-.032.563.924.924 0 0 1-.347.445.924.924 0 0 1-.538.168zm8.64 0a.924.924 0 0 1-.538-.168.924.924 0 0 1-.347-.444.924.924 0 0 1-.032-.563.924.924 0 0 1 .294-.481l4.948-4.329-4.947-4.329a.91.91 0 0 1-.321-.648.91.91 0 0 1 .232-.685.91.91 0 0 1 .648-.32.91.91 0 0 1 .685.231l5.76 5.04a.934.934 0 0 1 .323.711.934.934 0 0 1-.323.711l-5.76 5.04a.91.91 0 0 1-.622.234zm-6.48 2.16a.932.932 0 0 1-.424-.1.932.932 0 0 1-.334-.28.932.932 0 0 1-.172-.4.932.932 0 0 1 .025-.435l4.32-14.4a.936.936 0 0 1 .451-.581.936.936 0 0 1 .732-.081.936.936 0 0 1 .568.468.936.936 0 0 1 .059.734l-4.32 14.4a.922.922 0 0 1-.34.487.922.922 0 0 1-.565.188z"/><path fill="none" stroke="#000" d="M27.36 35.361a.912.912 0 0 1-.622-.234l-5.76-5.04a.934.934 0 0 1-.322-.711.934.934 0 0 1 .322-.711l5.76-5.04a.91.91 0 0 1 .685-.232.91.91 0 0 1 .649.32.91.91 0 0 1 .231.686.91.91 0 0 1-.32.648l-4.948 4.329 4.947 4.329c.149.13.247.29.295.48a.924.924 0 0 1-.032.563.924.924 0 0 1-.347.445.924.924 0 0 1-.538.168zm8.64 0a.924.924 0 0 1-.538-.168.924.924 0 0 1-.347-.444.924.924 0 0 1-.032-.563.924.924 0 0 1 .294-.481l4.948-4.329-4.947-4.329a.91.91 0 0 1-.321-.648.91.91 0 0 1 .232-.685.91.91 0 0 1 .648-.32.91.91 0 0 1 .685.231l5.76 5.04a.934.934 0 0 1 .323.711.934.934 0 0 1-.323.711l-5.76 5.04a.91.91 0 0 1-.622.234zm-6.48 2.16a.932.932 0 0 1-.424-.1.932.932 0 0 1-.334-.28.932.932 0 0 1-.172-.4.932.932 0 0 1 .025-.435l4.32-14.4a.936.936 0 0 1 .451-.581.936.936 0 0 1 .732-.081.936.936 0 0 1 .568.468.936.936 0 0 1 .059.734l-4.32 14.4a.922.922 0 0 1-.34.487.922.922 0 0 1-.565.188z" stroke-width=".045"/></g><clipPath id="o"><path transform="scale(.24)" d="M0 0h4200v2548.8H0z" fill-rule="evenodd"/></clipPath><g clip-path="url(#o)"><symbol id="p"><path d="M0 0v1.133h.072V.592h.264V.52H.072V0H0z"/></symbol><symbol id="q"><path d="M.6 0H0v.072h.6V0z"/></symbol><use xlink:href="#p" transform="matrix(23.04 0 0 -23.04 408.701 161.863)"/><use xlink:href="#q" transform="matrix(23.04 0 0 -23.04 416.439 149.881)"/><use xlink:href="#r" transform="matrix(23.04 0 0 -23.04 407.458 158.676)"/><symbol id="s"><path transform="matrix(.001 0 0 -.001 -.094 0)" d="M94 0v-710h142.406v669.406l-104.812-87.812H546V0H94z"/></symbol><symbol id="t"><path transform="matrix(.001 0 0 -.001 -.046 .012)" d="M300 12C249.333 12 204.932.568 166.797-22.297c-38.136-22.864-67.802-55.344-89-97.437C56.599-161.828 46-211.161 46-267.734c0-57.24 10.599-106.829 31.797-148.766 21.198-41.938 50.864-74.339 89-97.203C204.932-536.568 249.333-548 300-548s95.068 11.432 133.203 34.297c38.136 22.864 67.802 55.219 89 97.062C543.401-374.797 554-325.193 554-267.828c0 56.687-10.599 106.068-31.797 148.14-21.198 42.063-50.864 74.527-89 97.391C395.068.568 350.667 12 300 12zm0-119.594c36.27 0 64.203-13.9 83.797-41.703 19.604-27.802 29.406-67.469 29.406-119 0-51.531-9.802-91.099-29.406-118.703-19.594-27.604-47.526-41.406-83.797-41.406-36.27 0-64.208 13.802-83.813 41.406-19.593 27.604-29.39 67.172-29.39 118.703 0 51.531 9.797 91.198 29.39 119 19.605 27.802 47.542 41.703 83.813 41.703z"/></symbol><symbol id="u"><path transform="matrix(.001 0 0 -.001 -.05 .012)" d="M309.203 12C258.266 12 213.365.266 174.5-23.203c-38.865-23.469-69.198-56.234-91-98.297-21.802-42.063-32.703-90.896-32.703-146.5s10.9-104.37 32.703-146.297c21.802-41.937 52.135-74.703 91-98.297C213.365-536.198 258.266-548 309.203-548c42.136 0 80.432 8.37 114.89 25.11 34.47 16.729 62.902 40.463 85.298 71.202 22.406 30.73 36.474 67.157 42.203 109.282l-134.797 7.203c-6.802-30.136-19.438-53.203-37.906-69.203-18.459-16-41.287-24-68.485-24-37.073 0-66.146 14.302-87.219 42.906-21.062 28.604-31.593 67.77-31.593 117.5 0 49.73 10.531 88.896 31.594 117.5 21.072 28.604 50.145 42.906 87.218 42.906 27.594 0 50.89-8.4 69.89-25.203C399.297-149.599 412-174 418.407-206l134.797 7.203c-5.74 42.136-19.844 79.005-42.312 110.61-22.459 31.593-51.058 56.192-85.797 73.796C390.364 3.203 351.734 12 309.204 12z"/></symbol><symbol id="v"><path transform="matrix(.001 0 0 -.001 -.046 .012)" d="M224 12c-32.938 0-62.938-6-90-18-27.063-12-48.563-29.333-64.5-52-15.938-22.667-23.906-49.734-23.906-81.203 0-45.333 14.5-80.6 43.5-105.797 29-25.198 68.9-43.266 119.703-54.203L370-334c0-33.73-6.766-59.693-20.297-77.89-13.531-18.209-35.698-27.313-66.5-27.313-27.073 0-47.943 6.77-62.61 20.312-14.666 13.532-24.197 31.026-28.593 52.485L52-374c10-52.396 35.234-94.495 75.703-126.297C168.172-532.099 219.203-548 280.797-548c77.198 0 133.963 19.469 170.297 58.406 36.333 38.927 54.5 93.459 54.5 163.594v188.797c0 13.604 2.469 22.943 7.406 28.016 4.938 5.062 11.938 7.593 21 7.593h22V0c-4 .667-10.635 1.568-19.906 2.703-9.26 1.136-18.89 1.703-28.89 1.703-26.668 0-49.334-4.666-68-14-18.668-9.333-32.902-23.067-42.704-41.203-9.802-18.135-15.234-40.005-16.297-65.61H395c-3.063 24.272-12.031 46.173-26.906 65.704-14.865 19.531-34.531 34.864-59 46C284.635 6.432 256.27 12 224 12zm27.797-101.594c25.198 0 46.599-4.567 64.203-13.703 17.604-9.135 31.005-22.469 40.203-40 9.198-17.531 13.797-38.568 13.797-63.11V-238l-118.797 26c-24.406 5.063-41.51 12.73-51.312 23-9.792 10.27-14.688 24.604-14.688 43 0 17.469 5.698 31.24 17.094 41.313 11.406 10.062 27.906 15.093 49.5 15.093z"/></symbol><symbol id="w"><path transform="matrix(.001 0 0 -.001 -.044 0)" d="M373.203 0C313.068 0 268.833-13.698 240.5-41.094 212.167-68.5 198-110.667 198-167.594v-494.203h135.594v481c0 24.667 5.969 43.037 17.906 55.11 11.938 12.062 29.969 18.093 54.094 18.093H532V0H373.203zM44-428.406V-536h488v107.594H44z"/></symbol><symbol id="x"><path transform="matrix(.001 0 0 -.001 -.068 0)" d="M267.203 0v-536h135.594V0H267.203zM68 0v-107.594h504V0H68zm10-428.406V-536h299.594v107.594H78zm185.406-173.188V-720h137.188v118.406H263.406z"/></symbol><symbol id="y"><path transform="matrix(.001 0 0 -.001 -.072 0)" d="M72 0v-536h123.797L200-389.594l-13.594-6c6.26-34.937 17.521-63.672 33.781-86.203 16.271-22.531 36.438-39.198 60.5-50C304.76-542.599 331.464-548 360.798-548c38.667 0 70.198 8.599 94.594 25.797 24.406 17.198 42.609 40.864 54.609 71 12 30.135 18 64.87 18 104.203V0H392.406v-316.406c0-40.125-6.87-69.62-20.61-88.485-13.728-18.875-34.395-28.312-62-28.312-18.53 0-35.5 4.635-50.905 13.906-15.396 9.26-27.797 22.958-37.204 41.094-9.395 18.135-14.093 40.734-14.093 67.797V0H72z"/></symbol><use xlink:href="#s" transform="matrix(23.04 0 0 -23.04 446.262 154.944)" fill="#1f6feb"/><use xlink:href="#t" transform="matrix(23.04 0 0 -23.04 458.98 155.22)" fill="#1f6feb"/><use xlink:href="#u" transform="matrix(23.04 0 0 -23.04 472.914 155.22)" fill="#1f6feb"/><use xlink:href="#v" transform="matrix(23.04 0 0 -23.04 486.618 155.22)" fill="#1f6feb"/><use xlink:href="#w" transform="matrix(23.04 0 0 -23.04 500.406 154.944)" fill="#1f6feb"/><use xlink:href="#x" transform="matrix(23.04 0 0 -23.04 514.783 154.944)" fill="#1f6feb"/><use xlink:href="#t" transform="matrix(23.04 0 0 -23.04 528.1 155.22)" fill="#1f6feb"/><use xlink:href="#y" transform="matrix(23.04 0 0 -23.04 542.523 154.944)" fill="#1f6feb"/><symbol id="z"><path transform="matrix(.001 0 0 -.001 -.09 0)" d="M90 0v-710h216c49.333 0 92.333 8.667 129 26s65 42.167 85 74.5 30 71.167 30 116.5-10 84.167-30 116.5-48.333 57.167-85 74.5-79.667 26-129 26H176V0H90zm86-360h120c56 0 97.333-11.5 124-34.5s40-55.833 40-98.5c0-43.333-13.333-76.333-40-99s-68-34-124-34H176v266z"/></symbol><symbol id="A"><path transform="matrix(.001 0 0 -.001 -.08 0)" d="M293 0v-530h84V0h-84zM80 0v-74h480V0H80zm10-456v-74h287v74H90zm195-157v-98h88v98h-88z"/></symbol><symbol id="B"><path transform="matrix(.001 0 0 -.001 -.066 .012)" d="M309 12C259 12 215.833.667 179.5-22s-64.333-54.833-84-96.5S66-209 66-265s9.833-104.667 29.5-146 47.333-73.5 83-96.5S256.333-542 305-542c46 0 86.667 10.833 122 32.5s63 53.167 83 94.5 30 91.667 30 151v25H154c3.333 56.667 18.5 99.333 45.5 128S263-68 309-68c34.667 0 63.167-8.167 85.5-24.5s37.833-37.833 46.5-64.5l90 7c-14 47.333-40.5 86.167-79.5 116.5S365 12 309 12zM154-313h294c-4-51.333-19-89-45-113s-58.667-36-98-36c-40.667 0-74.167 12.5-100.5 37.5S161.333-362.333 154-313z"/></symbol><symbol id="C"><path transform="matrix(.001 0 0 -.001 -.058 .012)" d="M300 12C251.333 12 208.833.667 172.5-22S108-76.833 88-118.5 58-209 58-265c0-56.667 10-105.667 30-147s48.167-73.333 84.5-96 78.833-34 127.5-34 91.167 11.333 127.5 34 64.5 54.667 84.5 96 30 90.333 30 147c0 56-10 104.833-30 146.5S463.833-44.667 427.5-22 348.667 12 300 12zm0-80c48.667 0 86.5-17.5 113.5-52.5S454-203.667 454-265s-13.5-109.5-40.5-144.5S348.667-462 300-462s-86.5 17.5-113.5 52.5S146-326.333 146-265s13.5 109.5 40.5 144.5S251.333-68 300-68z"/></symbol><symbol id="D"><path transform="matrix(.001 0 0 -.001 -.084 0)" d="M84 0v-530h77l3 135-10-9c6.667-31.333 18.833-57.167 36.5-77.5S229.333-517 254-527s50.667-15 78-15c40.667 0 74.5 9 101.5 27s47.5 42.167 61.5 72.5 21 64.167 21 101.5V0h-84v-317c0-49.333-9.667-86.833-29-112.5S354-468 314-468c-27.333 0-52 5.833-74 17.5s-39.5 28.667-52.5 51S168-349.667 168-317V0H84z"/></symbol><symbol id="E"><path transform="matrix(.001 0 0 -.001 -.05 0)" d="M378 0c-51.333 0-89.667-12-115-36s-38-60.667-38-110v-508h84v508c0 24.667 5.667 42.833 17 54.5C337.333-79.833 354.667-74 378-74h142V0H378zM50-456v-74h470v74H50z"/></symbol><symbol id="F"><path transform="matrix(.001 0 0 -.001 -.24 .156)" d="M247 156 294 0h-54v-122h120v108l-63 170h-50z"/></symbol><symbol id="G"><path transform="matrix(.001 0 0 -.001 -.08 0)" d="M80 0v-84h177v-542H80v-84h440v84H343v542h177V0H80z"/></symbol><symbol id="H"><path transform="matrix(.001 0 0 -.001 -.054 .012)" d="M230 12c-33.333 0-63.333-6-90-18S92.333-34.833 77-56.5C61.667-78.167 54-103.333 54-132c0-45.333 13.5-80.5 40.5-105.5S164-280.667 222-292l178-36c0-45.333-10.167-79-30.5-101S320-462 282-462c-36.667 0-65.333 8.167-86 24.5s-35 39.833-43 70.5l-89-7c10-50 33.833-90.5 71.5-121.5S222-542 282-542c64 0 113.667 19.167 149 57.5s53 91.167 53 158.5v220c0 12 2.667 20.333 8 25 5.333 4.667 13.333 7 24 7h34V0c-4 .667-10.333 1.167-19 1.5-8.667.333-17 .5-25 .5-22.667 0-41.833-3.667-57.5-11-15.667-7.333-27.5-19.167-35.5-35.5S400.667-82 400-108h16c-4.667 22.667-15.833 43.167-33.5 61.5s-39.833 32.667-66.5 43C289.333 6.833 260.667 12 230 12zm8-74c36 0 66-6.167 90-18.5s42-29.667 54-52 18-48.167 18-77.5v-46l-162 32c-36 6.667-61 16.833-75 30.5-14 13.667-21 31.5-21 53.5 0 24.667 8.5 43.833 25.5 57.5C184.5-68.833 208-62 238-62z"/></symbol><symbol id="I"><path transform="matrix(.001 0 0 -.001 -.06 0)" d="M273 0v-568c0-21.333-6-38-18-50s-28.667-18-50-18H80v-74h129c48.667 0 85.5 12.5 110.5 37.5S357-610.667 357-562V0h-84zM60 0v-74h480V0H60z"/></symbol><symbol id="J"><path transform="matrix(.001 0 0 -.001 -.054 .15)" d="M138 150V76h61c18.667 0 32.5-2.833 41.5-8.5S256.333 52.667 261 40l19-50h-29L54-530h92L307-88l151-442h92L335 67c-10 28.667-25 49.667-45 63-20 13.333-47.667 20-83 20h-69z"/></symbol><use xlink:href="#j" transform="matrix(23.04 0 0 -23.04 560.172 154.944)"/><use xlink:href="#r" transform="matrix(23.04 0 0 -23.04 545.702 158.676)"/><use xlink:href="#z" transform="matrix(23.04 0 0 -23.04 584.41 154.944)"/><use xlink:href="#A" transform="matrix(23.04 0 0 -23.04 598.003 154.944)"/><use xlink:href="#B" transform="matrix(23.04 0 0 -23.04 611.505 155.22)"/><use xlink:href="#i" transform="matrix(23.04 0 0 -23.04 624.73 155.22)"/><use xlink:href="#h" transform="matrix(23.04 0 0 -23.04 638.553 154.944)"/><use xlink:href="#C" transform="matrix(23.04 0 0 -23.04 652.792 155.22)"/><use xlink:href="#D" transform="matrix(23.04 0 0 -23.04 667.215 154.944)"/><use xlink:href="#E" transform="matrix(23.04 0 0 -23.04 680.256 154.944)"/><use xlink:href="#F" transform="matrix(23.04 0 0 -23.04 698.458 158.538)"/><use xlink:href="#r" transform="matrix(23.04 0 0 -23.04 683.942 158.676)"/><use xlink:href="#G" transform="matrix(23.04 0 0 -23.04 722.42 154.944)"/><use xlink:href="#E" transform="matrix(23.04 0 0 -23.04 735.552 154.944)"/><use xlink:href="#H" transform="matrix(23.04 0 0 -23.04 749.468 155.22)"/><use xlink:href="#I" transform="matrix(23.04 0 0 -23.04 763.43 154.944)"/><use xlink:href="#J" transform="matrix(23.04 0 0 -23.04 777.116 158.4)"/><symbol id="K"><path d="M0 0v1.021h.072V0H0z"/></symbol><use xlink:href="#K" transform="matrix(23.04 0 0 -23.04 408.701 145.852)"/><use xlink:href="#p" transform="matrix(23.04 0 0 -23.04 408.701 191.815)"/><use xlink:href="#q" transform="matrix(23.04 0 0 -23.04 416.439 179.833)"/><use xlink:href="#r" transform="matrix(23.04 0 0 -23.04 407.458 188.628)"/><symbol id="L"><path transform="matrix(.001 0 0 -.001 -.084 0)" d="M84 0v-710h444v128.406H226.406v163H516v125.188H226.406v165H536V0H84z"/></symbol><symbol id="M"><path transform="matrix(.001 0 0 -.001 -.028 .012)" d="M241.203 12c-43.073 0-80.61-11.031-112.61-33.094-32-22.073-56.765-53.974-74.296-95.703C36.766-158.537 28-208.937 28-268s8.766-109.458 26.297-151.188c17.531-41.74 42.297-73.64 74.297-95.703 32-22.073 69.536-33.109 112.61-33.109 37.332 0 69.697 8.234 97.093 24.703 27.406 16.469 47.443 37.5 60.11 63.094V-710H534V0H404l-3.594-84.797c-13.469 28.26-33.74 51.458-60.812 69.594C312.53 2.932 279.734 12 241.204 12zm39.203-119.594c23.594 0 44.292-6.302 62.094-18.906s31.568-30.839 41.297-54.703c9.74-23.865 14.61-52.797 14.61-86.797 0-34.531-4.87-63.76-14.61-87.688-9.73-23.937-23.464-42.041-41.203-54.312-17.73-12.27-38.73-18.406-63-18.406-36.125 0-63.625 13.802-82.5 41.406-18.865 27.604-28.297 67.27-28.297 119 0 51.469 9.432 91.073 28.297 118.813 18.875 27.729 46.646 41.593 83.312 41.593z"/></symbol><symbol id="N"><path transform="matrix(.001 0 0 -.001 -.074 .012)" d="M237.203 12c-50.27 0-89.974-16.833-119.11-50.5-29.124-33.667-43.687-82.432-43.687-146.297V-536H210v316.797c0 41.333 6.766 71.068 20.297 89.203 13.531 18.135 33.5 27.203 59.906 27.203 27.333 0 50.396-10.4 69.188-31.203 18.802-20.802 28.203-51.068 28.203-90.797V-536h135.61V0h-125l-3-154.406 16 4c-7.47 51.74-26.303 91.745-56.5 120.015C324.504-2.13 285.338 12 237.203 12z"/></symbol><use xlink:href="#L" transform="matrix(23.04 0 0 -23.04 446.031 184.896)" fill="#1f6feb"/><use xlink:href="#M" transform="matrix(23.04 0 0 -23.04 458.565 185.172)" fill="#1f6feb"/><use xlink:href="#N" transform="matrix(23.04 0 0 -23.04 473.458 185.172)" fill="#1f6feb"/><use xlink:href="#u" transform="matrix(23.04 0 0 -23.04 486.738 185.172)" fill="#1f6feb"/><use xlink:href="#v" transform="matrix(23.04 0 0 -23.04 500.442 185.172)" fill="#1f6feb"/><use xlink:href="#w" transform="matrix(23.04 0 0 -23.04 514.23 184.896)" fill="#1f6feb"/><use xlink:href="#x" transform="matrix(23.04 0 0 -23.04 528.607 184.896)" fill="#1f6feb"/><use xlink:href="#t" transform="matrix(23.04 0 0 -23.04 541.924 185.172)" fill="#1f6feb"/><use xlink:href="#y" transform="matrix(23.04 0 0 -23.04 556.347 184.896)" fill="#1f6feb"/><symbol id="O"><path transform="matrix(.001 0 0 -.001 -.04 0)" d="M257 0v-626H40v-84h520v84H343V0h-86z"/></symbol><symbol id="P"><path transform="matrix(.001 0 0 -.001 -.044 .016)" d="M311 16c-50 0-94.333-10.333-133-31s-69.667-49.167-93-85.5S48-179 44-227l90-6c4.667 35.333 14.833 65.333 30.5 90s36 43.333 61 56c25 12.667 54.167 19 87.5 19s61.333-4.167 84-12.5 39.833-20.667 51.5-37c11.667-16.333 17.5-35.833 17.5-58.5s-5.167-42.5-15.5-59.5-29.667-32.833-58-47.5c-28.333-14.667-70.167-29.667-125.5-45-49.333-14-89.167-29.333-119.5-46s-52.333-37-66-61C67.833-459 61-488.667 61-524c0-40 9.5-75.167 28.5-105.5s46.167-54 81.5-71S248.333-726 297-726s90.333 9.833 125 29.5 62.167 46.5 82.5 80.5 33.167 72.667 38.5 116l-90 6c-4-28.667-12.333-54.167-25-76.5s-30-39.833-52-52.5c-22-12.667-49-19-81-19-44 0-79 10.5-105 31.5S151-562 151-528c0 22 4.833 40.167 14.5 54.5 9.667 14.333 26.833 27 51.5 38s59.333 22.833 104 35.5c58 16 104.167 34 138.5 54s59 43.833 74 71.5S556-213.333 556-174c0 37.333-10.333 70.333-31 99s-49.333 51-86 67-79.333 24-128 24z"/></symbol><symbol id="Q"><path transform="matrix(.001 0 0 -.001 -.038 .016)" d="M302 16c-56.667 0-104.667-15-144-45s-69.167-72.667-89.5-128S38-278 38-354c0-76.667 10.167-142.667 30.5-198s50.167-98.167 89.5-128.5S245.333-726 302-726c62.667 0 116 20.5 160 61.5s73.333 98.167 88 171.5l-92 6c-11.333-51.333-30.833-90-58.5-116s-60.167-39-97.5-39c-38 0-69.833 11.167-95.5 33.5s-45.167 55-58.5 98c-13.333 43-20 95.167-20 156.5 0 60.667 6.667 112.333 20 155s32.833 75.167 58.5 97.5S264-68 302-68c41.333 0 76.333-14.333 105-43s48-71.333 58-128l91 5c-12.667 78-41.333 139.167-86 183.5S369.333 16 302 16z"/></symbol><symbol id="R"><path transform="matrix(.001 0 0 -.001 -.1 0)" d="M100 0v-710h440v82H142l44-42v326l-44-44h380v82H142l44-44V0h-86z"/></symbol><symbol id="S"><path transform="matrix(.001 0 0 -.001 -.09 .012)" d="M263 12c-52.667 0-94.667-17.833-126-53.5S90-126.333 90-189v-341h84v318c0 51.333 9.167 89.167 27.5 113.5S248-62 286-62c41.333 0 74-13.5 98-40.5s36-64.167 36-111.5v-316h84V0h-80v-131l13 7c-10.667 43.333-31 76.833-61 100.5S308.333 12 263 12z"/></symbol><use xlink:href="#j" transform="matrix(23.04 0 0 -23.04 573.995 184.896)"/><use xlink:href="#r" transform="matrix(23.04 0 0 -23.04 559.526 188.628)"/><use xlink:href="#G" transform="matrix(23.04 0 0 -23.04 598.003 184.896)"/><use xlink:href="#O" transform="matrix(23.04 0 0 -23.04 610.905 184.896)"/><use xlink:href="#P" transform="matrix(23.04 0 0 -23.04 624.822 185.265)"/><use xlink:href="#r" transform="matrix(23.04 0 0 -23.04 614.822 188.628)"/><use xlink:href="#G" transform="matrix(23.04 0 0 -23.04 653.3 184.896)"/><use xlink:href="#Q" transform="matrix(23.04 0 0 -23.04 666.155 185.265)"/><use xlink:href="#O" transform="matrix(23.04 0 0 -23.04 680.025 184.896)"/><use xlink:href="#r" transform="matrix(23.04 0 0 -23.04 670.118 188.628)"/><use xlink:href="#R" transform="matrix(23.04 0 0 -23.04 709.056 184.896)"/><use xlink:href="#C" transform="matrix(23.04 0 0 -23.04 721.912 185.172)"/><use xlink:href="#S" transform="matrix(23.04 0 0 -23.04 736.474 185.172)"/><use xlink:href="#D" transform="matrix(23.04 0 0 -23.04 750.16 184.896)"/><use xlink:href="#i" transform="matrix(23.04 0 0 -23.04 762.97 185.172)"/><use xlink:href="#H" transform="matrix(23.04 0 0 -23.04 777.116 185.172)"/><use xlink:href="#E" transform="matrix(23.04 0 0 -23.04 790.848 184.896)"/><use xlink:href="#A" transform="matrix(23.04 0 0 -23.04 805.363 184.896)"/><use xlink:href="#C" transform="matrix(23.04 0 0 -23.04 818.68 185.172)"/><use xlink:href="#D" transform="matrix(23.04 0 0 -23.04 833.103 184.896)"/><use xlink:href="#K" transform="matrix(23.04 0 0 -23.04 408.701 175.804)"/><use xlink:href="#p" transform="matrix(23.04 0 0 -23.04 408.701 221.767)"/><use xlink:href="#q" transform="matrix(23.04 0 0 -23.04 416.439 209.785)"/><use xlink:href="#r" transform="matrix(23.04 0 0 -23.04 407.458 218.58)"/><symbol id="T"><path transform="matrix(.001 0 0 -.001 -.042 .162)" d="M296.406 162c-43.604 0-81.541-6.333-113.812-19-32.26-12.667-58.625-30.568-79.094-53.703C83.031 66.16 68.932 39.063 61.203 8l142-8.406c5.594 16.27 15.755 29.073 30.484 38.406 14.74 9.333 35.646 14 62.72 14 38 0 66.833-8.568 86.5-25.703 19.666-17.136 29.5-42.037 29.5-74.703v-62c-12.272 24.802-30.71 44.74-55.313 59.812C332.5-35.53 301.469-28 264-28c-42.667 0-80.802-10.797-114.406-32.39-33.594-21.605-59.927-51.641-79-90.11C51.53-188.969 42-233.203 42-283.203c0-53.865 9.365-100.563 28.094-140.094 18.74-39.531 44.573-70.198 77.5-92C180.53-537.099 218.4-548 261.204-548c36.135 0 67.233 8.167 93.296 24.5 26.063 16.333 45.896 39.365 59.5 69.094L416.406-536H548v471.203c0 50.136-10.333 92.037-31 125.703-20.667 33.667-49.833 58.933-87.5 75.797C391.833 153.568 347.469 162 296.406 162zM298-136.797c33.73 0 61.161-12.531 82.297-37.594 21.135-25.073 31.838-62.343 32.11-111.812.26-33.063-4.376-60.86-13.907-83.39-9.531-22.542-23-39.579-40.406-51.11C340.698-432.234 320.667-438 298-438c-36.667 0-65.036 12.932-85.11 38.797-20.062 25.864-30.093 63.531-30.093 113s10.167 86.74 30.5 111.812c20.333 25.063 48.568 37.594 84.703 37.594z"/></symbol><symbol id="U"><path transform="matrix(.001 0 0 -.001 -.05 .012)" d="M303.594 12c-50 0-94.167-11.432-132.5-34.297-38.334-22.864-68.235-55.328-89.703-97.39C59.932-161.76 49.203-211.197 49.203-268c0-55.604 10.63-104.37 31.89-146.297 21.272-41.937 50.84-74.703 88.704-98.297C207.66-536.198 251.729-548 302-548c49.198 0 92.661 11.635 130.39 34.906 37.74 23.26 67.308 56.058 88.704 98.39 21.406 42.334 32.11 92.168 32.11 149.5v34H188.796c3.333 39.865 15.5 70.433 36.5 91.704 21 21.27 48.099 31.906 81.297 31.906 25.073 0 46.276-5.969 63.61-17.906 17.332-11.938 29.332-27.839 36-47.703l136.202 9.406c-18 56.136-47.203 99.469-87.61 130C414.402-3.266 364 12 303.595 12zm-113-335.797h217.203c-3.198-34.937-14.396-61.104-33.594-78.5-19.198-17.406-43.667-26.11-73.406-26.11-30.26 0-54.958 8.902-74.094 26.704-19.135 17.802-31.172 43.77-36.11 77.906z"/></symbol><symbol id="V"><path transform="matrix(.001 0 0 -.001 -.064 .012)" d="M305.203 12C253.6 12 210.531 3.901 176-12.297c-34.531-16.198-61-37.896-79.406-65.094-18.396-27.208-29.125-57.479-32.188-90.812L198-173.593c5.73 21.864 17.026 39.333 33.89 52.405 16.876 13.063 41.714 19.594 74.516 19.594 30.927 0 53.724-3.765 68.39-11.297 14.668-7.541 22-18.713 22-33.515 0-10.125-2.567-18.49-7.702-25.094-5.125-6.604-15.089-12.604-29.89-18-14.803-5.396-36.938-11.031-66.407-16.906-54.136-11.334-97.005-24.13-128.61-38.39-31.593-14.272-54.192-32.24-67.796-53.907C82.797-320.37 76-347.333 76-379.593c0-31.074 8.068-59.308 24.203-84.704 16.136-25.406 40.5-45.708 73.094-60.906C205.9-540.401 246.667-548 295.594-548c53.604 0 96.937 8.635 130 25.906 33.073 17.26 57.974 39.526 74.703 66.797 16.74 27.26 27.172 56.224 31.297 86.89l-134.797 6c-2.802-14.26-8.505-26.754-17.11-37.484-8.593-10.74-19.927-19.177-34-25.312-14.062-6.136-30.49-9.203-49.28-9.203-29.074 0-49.943 5.567-62.61 16.703-12.667 11.135-19 23.838-19 38.11 0 12.395 3.432 22.63 10.297 30.702 6.875 8.063 19.078 15.063 36.61 21 17.53 5.927 42.296 12.157 74.296 18.688 51.865 10.27 92.198 22.14 121 35.61 28.802 13.458 49.099 30.088 60.89 49.89 11.803 19.802 17.704 44.77 17.704 74.906 0 33.333-9.068 61.969-27.203 85.906C490.266-38.964 464.068-20.5 429.797-7.5 395.537 5.5 354.005 12 305.203 12z"/></symbol><use xlink:href="#s" transform="matrix(23.04 0 0 -23.04 446.262 214.848)" fill="#1f6feb"/><use xlink:href="#v" transform="matrix(23.04 0 0 -23.04 458.97 215.124)" fill="#1f6feb"/><use xlink:href="#y" transform="matrix(23.04 0 0 -23.04 473.403 214.848)" fill="#1f6feb"/><use xlink:href="#T" transform="matrix(23.04 0 0 -23.04 486.536 218.58)" fill="#1f6feb"/><use xlink:href="#N" transform="matrix(23.04 0 0 -23.04 501.106 215.124)" fill="#1f6feb"/><use xlink:href="#v" transform="matrix(23.04 0 0 -23.04 514.266 215.124)" fill="#1f6feb"/><use xlink:href="#T" transform="matrix(23.04 0 0 -23.04 528.008 218.58)" fill="#1f6feb"/><use xlink:href="#U" transform="matrix(23.04 0 0 -23.04 541.998 215.124)" fill="#1f6feb"/><use xlink:href="#V" transform="matrix(23.04 0 0 -23.04 556.172 215.124)" fill="#1f6feb"/><symbol id="W"><path transform="matrix(.001 0 0 -.001 -.06 .162)" d="M297 162c-38 0-72.333-6.333-103-19s-56.333-30.667-77-54S82.333 38.667 75 8l88-6c8 24.667 22.167 44.167 42.5 58.5C225.833 74.833 256.333 82 297 82c48 0 84.833-9.667 110.5-29S446 4.667 446-34v-86c-12.667 28-33 50.333-61 67s-59.333 25-94 25c-44.667 0-84.5-11-119.5-33s-62.333-52.333-82-91S60-235 60-285c0-50.667 9.667-95.167 29-133.5s46.167-68.5 80.5-90.5S243-542 287-542c37.333 0 70.833 8.667 100.5 26s50.5 40.667 62.5 70v-84h80v494c0 41.333-9.333 76.833-28 106.5s-45.333 52.333-80 68c-34.667 15.667-76.333 23.5-125 23.5zm-2-270c45.333 0 81.667-15.833 109-47.5s41.333-74.833 42-129.5c.667-36.667-5.167-68.167-17.5-94.5s-30-46.667-53-61c-23-14.333-49.833-21.5-80.5-21.5-46.667 0-82.833 15.833-108.5 47.5S148-339.667 148-285s13.167 97.833 39.5 129.5S249.667-108 295-108z"/></symbol><symbol id="X"><path transform="matrix(.001 0 0 -.001 -.08 .012)" d="M310 12c-46 0-85.667-8-119-24s-59.5-37.5-78.5-64.5S82.667-133.667 80-167l88-6c5.333 32.667 19.833 58.333 43.5 77S268-68 310-68c39.333 0 69.833-5.667 91.5-17s32.5-29 32.5-53c0-15.333-3.667-28-11-38s-21-18.5-41-25.5-49.333-13.833-88-20.5c-51.333-9.333-91.5-20.833-120.5-34.5-29-13.667-49.5-30.833-61.5-51.5s-18-45.333-18-74c0-30.667 7.667-58 23-82s38-43 68-57 66.667-21 110-21c44 0 80.833 7.833 110.5 23.5s53.167 36.333 70.5 62 28.667 53.833 34 84.5l-88 6c-4-18.667-11.5-35.167-22.5-49.5-11-14.333-25.333-25.667-43-34C338.833-457.833 318-462 294-462c-38.667 0-67.333 7.667-86 23s-28 34.333-28 57c0 18 4.333 32.333 13 43 8.667 10.667 22.667 19.167 42 25.5 19.333 6.333 45 12.167 77 17.5 54.667 8.667 97 19.833 127 33.5 30 13.667 51 30.5 63 50.5s18 44.667 18 74c0 31.333-9.167 58.167-27.5 80.5S449.167-18 417.5-6 350 12 310 12z"/></symbol><symbol id="Y"><path transform="matrix(.001 0 0 -.001 -.1 0)" d="M100 0v-710h84v297l-10-2c6.667-29.333 18-53.333 34-72s35.667-32.5 59-41.5 48.667-13.5 76-13.5c38 0 70.167 8.5 96.5 25.5s46.333 40.667 60 71C513.167-415.167 520-380.333 520-341V0h-84v-317c0-51.333-9.167-89.333-27.5-114s-46.167-37-83.5-37c-42.667 0-76.833 13-102.5 39S184-365.333 184-316V0h-84z"/></symbol><use xlink:href="#j" transform="matrix(23.04 0 0 -23.04 573.995 214.848)"/><use xlink:href="#r" transform="matrix(23.04 0 0 -23.04 559.526 218.58)"/><use xlink:href="#c" transform="matrix(23.04 0 0 -23.04 598.234 214.848)"/><use xlink:href="#D" transform="matrix(23.04 0 0 -23.04 611.92 214.848)"/><use xlink:href="#W" transform="matrix(23.04 0 0 -23.04 625.19 218.58)"/><use xlink:href="#I" transform="matrix(23.04 0 0 -23.04 639.014 214.848)"/><use xlink:href="#A" transform="matrix(23.04 0 0 -23.04 653.3 214.848)"/><use xlink:href="#X" transform="matrix(23.04 0 0 -23.04 667.123 215.124)"/><use xlink:href="#Y" transform="matrix(23.04 0 0 -23.04 681.408 214.848)"/><use xlink:href="#F" transform="matrix(23.04 0 0 -23.04 698.458 218.442)"/><use xlink:href="#r" transform="matrix(23.04 0 0 -23.04 683.942 218.58)"/><use xlink:href="#G" transform="matrix(23.04 0 0 -23.04 722.42 214.848)"/><use xlink:href="#E" transform="matrix(23.04 0 0 -23.04 735.552 214.848)"/><use xlink:href="#H" transform="matrix(23.04 0 0 -23.04 749.468 215.124)"/><use xlink:href="#I" transform="matrix(23.04 0 0 -23.04 763.43 214.848)"/><use xlink:href="#A" transform="matrix(23.04 0 0 -23.04 777.715 214.848)"/><use xlink:href="#H" transform="matrix(23.04 0 0 -23.04 790.94 215.124)"/><use xlink:href="#D" transform="matrix(23.04 0 0 -23.04 805.455 214.848)"/><use xlink:href="#K" transform="matrix(23.04 0 0 -23.04 408.701 205.756)"/><symbol id="Z"><path d="M0 0v.613h.072V.072h.264V0H0z"/></symbol><use xlink:href="#Z" transform="matrix(23.04 0 0 -23.04 408.701 239.737)"/><use xlink:href="#q" transform="matrix(23.04 0 0 -23.04 416.439 239.737)"/><use xlink:href="#r" transform="matrix(23.04 0 0 -23.04 407.458 248.532)"/><symbol id="aa"><path transform="matrix(.001 0 0 -.001 -.078 0)" d="M78 0v-710h229.203c48.927 0 92.125 9.568 129.594 28.703 37.469 19.136 66.703 45.77 87.703 79.906 21 34.125 31.5 74.058 31.5 119.797 0 45.73-10.5 85.563-31.5 119.5-21 33.927-50.234 60.36-87.703 79.297-37.469 18.927-80.667 28.39-129.594 28.39h-86.797V0H78zm142.406-382.797h72c39.594 0 69.021-8.4 88.281-25.203 19.271-16.802 28.907-41.333 28.907-73.594 0-32.937-9.636-57.838-28.906-74.703-19.26-16.864-48.688-25.297-88.282-25.297h-72v198.797z"/></symbol><symbol id="ab"><path transform="matrix(.001 0 0 -.001 -.072 0)" d="M200.406 0v-536h100l10.39 140-9.202.406c5.875-46.937 19.578-82.073 41.11-105.406 21.53-23.333 53.16-35 94.89-35H558v110.797H447.594c-25.198 0-46.031 4.37-62.5 13.11-16.459 8.728-28.755 21.728-36.89 39C340.067-355.834 336-334.136 336-308V0H200.406zM72 0v-107.594h427.203V0H72zm0-428.406V-536h209.203v107.594H72z"/></symbol><use xlink:href="#aa" transform="matrix(23.04 0 0 -23.04 445.893 244.8)" fill="#1f6feb"/><use xlink:href="#ab" transform="matrix(23.04 0 0 -23.04 459.579 244.8)" fill="#1f6feb"/><use xlink:href="#t" transform="matrix(23.04 0 0 -23.04 472.804 245.076)" fill="#1f6feb"/><use xlink:href="#y" transform="matrix(23.04 0 0 -23.04 487.227 244.8)" fill="#1f6feb"/><use xlink:href="#t" transform="matrix(23.04 0 0 -23.04 500.452 245.076)" fill="#1f6feb"/><use xlink:href="#N" transform="matrix(23.04 0 0 -23.04 514.93 245.076)" fill="#1f6feb"/><use xlink:href="#y" transform="matrix(23.04 0 0 -23.04 528.699 244.8)" fill="#1f6feb"/><use xlink:href="#V" transform="matrix(23.04 0 0 -23.04 542.348 245.076)" fill="#1f6feb"/><symbol id="ac"><path transform="matrix(.001 0 0 -.001 -.06 0)" d="M60 0v-710h86v345l-44-34h396l-44 34v-345h86V0h-86v-349l44 34H102l44-34V0H60z"/></symbol><symbol id="ad"><path transform="matrix(.001 0 0 -.001 -.108 .11)" d="m108 110 304-860h80L188 110h-80z"/></symbol><use xlink:href="#j" transform="matrix(23.04 0 0 -23.04 560.172 244.8)"/><use xlink:href="#r" transform="matrix(23.04 0 0 -23.04 545.702 248.532)"/><use xlink:href="#ac" transform="matrix(23.04 0 0 -23.04 583.718 244.8)"/><use xlink:href="#B" transform="matrix(23.04 0 0 -23.04 597.68 245.076)"/><use xlink:href="#ad" transform="matrix(23.04 0 0 -23.04 612.472 247.334)"/><use xlink:href="#ac" transform="matrix(23.04 0 0 -23.04 625.19 244.8)"/><use xlink:href="#A" transform="matrix(23.04 0 0 -23.04 639.475 244.8)"/><use xlink:href="#h" transform="matrix(23.04 0 0 -23.04 652.378 244.8)"/><use xlink:href="#K" transform="matrix(23.04 0 0 -23.04 408.701 235.708)"/><use xlink:href="#p" transform="matrix(23.04 0 0 -23.04 408.701 326.599)"/><use xlink:href="#q" transform="matrix(23.04 0 0 -23.04 416.439 314.618)"/><use xlink:href="#r" transform="matrix(23.04 0 0 -23.04 407.458 323.412)"/><symbol id="ae"><path transform="matrix(.001 0 0 -.001 -.094 0)" d="M94 0v-710h452v127.594H145.594l90.812-87V-344l-90.812-66.203H528V-285H145.594l90.812-65V0H94z"/></symbol><symbol id="af"><path transform="matrix(.001 0 0 -.001 -.134 -.23)" d="M134-353.203h332v122.797H134z"/></symbol><use xlink:href="#ae" transform="matrix(23.04 0 0 -23.04 446.262 319.68)" fill="#1f6feb"/><use xlink:href="#ab" transform="matrix(23.04 0 0 -23.04 459.579 319.68)" fill="#1f6feb"/><use xlink:href="#t" transform="matrix(23.04 0 0 -23.04 472.804 319.956)" fill="#1f6feb"/><use xlink:href="#y" transform="matrix(23.04 0 0 -23.04 487.227 319.68)" fill="#1f6feb"/><use xlink:href="#w" transform="matrix(23.04 0 0 -23.04 500.406 319.68)" fill="#1f6feb"/><use xlink:href="#af" transform="matrix(23.04 0 0 -23.04 516.303 314.371)" fill="#1f6feb"/><use xlink:href="#L" transform="matrix(23.04 0 0 -23.04 528.975 319.68)" fill="#1f6feb"/><use xlink:href="#y" transform="matrix(23.04 0 0 -23.04 542.523 319.68)" fill="#1f6feb"/><use xlink:href="#M" transform="matrix(23.04 0 0 -23.04 555.333 319.956)" fill="#1f6feb"/><symbol id="ag"><path transform="matrix(.001 0 0 -.001 -.09 0)" d="M228 0v-530h70l8 134-8-2c6.667-45.333 21.167-78.667 43.5-100s52.167-32 89.5-32h109v76H432c-26 0-47.833 5.167-65.5 15.5s-31.167 25.333-40.5 45c-9.333 19.667-14 44.167-14 73.5V0h-84zM90 0v-74h390V0H90zm0-456v-74h184v74H90z"/></symbol><use xlink:href="#j" transform="matrix(23.04 0 0 -23.04 573.995 319.68)"/><use xlink:href="#r" transform="matrix(23.04 0 0 -23.04 559.526 323.412)"/><use xlink:href="#d" transform="matrix(23.04 0 0 -23.04 596.76 319.68)"/><use xlink:href="#D" transform="matrix(23.04 0 0 -23.04 611.92 319.68)"/><use xlink:href="#W" transform="matrix(23.04 0 0 -23.04 625.19 323.412)"/><use xlink:href="#S" transform="matrix(23.04 0 0 -23.04 639.706 319.956)"/><use xlink:href="#I" transform="matrix(23.04 0 0 -23.04 652.838 319.68)"/><use xlink:href="#H" transform="matrix(23.04 0 0 -23.04 666.524 319.956)"/><use xlink:href="#ag" transform="matrix(23.04 0 0 -23.04 681.178 319.68)"/><use xlink:href="#F" transform="matrix(23.04 0 0 -23.04 698.458 323.274)"/><use xlink:href="#r" transform="matrix(23.04 0 0 -23.04 683.942 323.412)"/><use xlink:href="#e" transform="matrix(23.04 0 0 -23.04 722.65 319.68)"/><use xlink:href="#C" transform="matrix(23.04 0 0 -23.04 735.736 319.956)"/><use xlink:href="#E" transform="matrix(23.04 0 0 -23.04 749.376 319.68)"/><use xlink:href="#D" transform="matrix(23.04 0 0 -23.04 763.983 319.68)"/><use xlink:href="#B" transform="matrix(23.04 0 0 -23.04 777.393 319.956)"/><use xlink:href="#E" transform="matrix(23.04 0 0 -23.04 790.848 319.68)"/><use xlink:href="#K" transform="matrix(23.04 0 0 -23.04 408.701 310.588)"/><use xlink:href="#p" transform="matrix(23.04 0 0 -23.04 408.701 356.55)"/><use xlink:href="#q" transform="matrix(23.04 0 0 -23.04 416.439 344.57)"/><use xlink:href="#r" transform="matrix(23.04 0 0 -23.04 407.458 353.364)"/><symbol id="ah"><path transform="matrix(.001 0 0 -.001 -.068 0)" d="M68.406 0v-710h218c79.198 0 139.927 16.135 182.188 48.406C510.864-629.334 532-582 532-519.594c0 28.927-6.203 54.76-18.61 77.5-12.395 22.73-31.463 41.063-57.202 55C430.457-373.167 397.728-364.802 358-362v-7.203c46.938 1.604 85.438 9.906 115.5 24.906 30.063 15 52.328 35.37 66.797 61.11C554.766-257.459 562-227.865 562-194.407c0 64.136-21.833 112.574-65.5 145.313C452.833-16.364 390.135 0 308.406 0h-240zm142.39-126 98-.594c35.74-.406 62.475-7.906 80.204-22.5C406.73-163.698 415.594-184 415.594-210c0-28-9.068-49.766-27.203-65.297-18.125-15.531-44.657-23.297-79.594-23.297h-98V-126zm0-295h74.798c33.74 0 58.838-7.167 75.297-21.5 16.468-14.333 24.703-34.568 24.703-60.703 0-26-8.235-45.964-24.703-59.89C344.432-577.032 319.333-584 285.594-584h-74.797v163z"/></symbol><symbol id="ai"><path transform="matrix(.001 0 0 -.001 -.06 0)" d="M60 0v-710h135.594v408l204-234h161.203L357.203-306.797 569.593 0H414.798l-146.39-219.203-72.813 78.797V0H60z"/></symbol><use xlink:href="#ah" transform="matrix(23.04 0 0 -23.04 445.672 349.632)" fill="#1f6feb"/><use xlink:href="#v" transform="matrix(23.04 0 0 -23.04 458.97 349.908)" fill="#1f6feb"/><use xlink:href="#u" transform="matrix(23.04 0 0 -23.04 472.914 349.908)" fill="#1f6feb"/><use xlink:href="#ai" transform="matrix(23.04 0 0 -23.04 486.95 349.632)" fill="#1f6feb"/><use xlink:href="#af" transform="matrix(23.04 0 0 -23.04 502.48 344.323)" fill="#1f6feb"/><use xlink:href="#L" transform="matrix(23.04 0 0 -23.04 515.151 349.632)" fill="#1f6feb"/><use xlink:href="#y" transform="matrix(23.04 0 0 -23.04 528.699 349.632)" fill="#1f6feb"/><use xlink:href="#M" transform="matrix(23.04 0 0 -23.04 541.51 349.908)" fill="#1f6feb"/><symbol id="aj"><path transform="matrix(.001 0 0 -.001 -.07 0)" d="M70 0v-710h122L444-98v-612h86V0H408L156-612V0H70z"/></symbol><use xlink:href="#j" transform="matrix(23.04 0 0 -23.04 560.172 349.632)"/><use xlink:href="#r" transform="matrix(23.04 0 0 -23.04 545.702 353.364)"/><use xlink:href="#aj" transform="matrix(23.04 0 0 -23.04 583.949 349.632)"/><use xlink:href="#C" transform="matrix(23.04 0 0 -23.04 597.496 349.908)"/><use xlink:href="#i" transform="matrix(23.04 0 0 -23.04 610.905 349.908)"/><use xlink:href="#B" transform="matrix(23.04 0 0 -23.04 625.329 349.908)"/><use xlink:href="#F" transform="matrix(23.04 0 0 -23.04 643.162 353.226)"/><use xlink:href="#r" transform="matrix(23.04 0 0 -23.04 628.646 353.364)"/><use xlink:href="#z" transform="matrix(23.04 0 0 -23.04 667.354 349.632)"/><use xlink:href="#ac" transform="matrix(23.04 0 0 -23.04 680.486 349.632)"/><use xlink:href="#z" transform="matrix(23.04 0 0 -23.04 695.002 349.632)"/><use xlink:href="#K" transform="matrix(23.04 0 0 -23.04 408.701 340.54)"/><use xlink:href="#Z" transform="matrix(23.04 0 0 -23.04 408.701 374.521)"/><use xlink:href="#q" transform="matrix(23.04 0 0 -23.04 416.439 374.521)"/><use xlink:href="#r" transform="matrix(23.04 0 0 -23.04 407.458 383.316)"/><symbol id="ak"><path transform="matrix(.001 0 0 -.001 -.068 0)" d="M68.406 0v-710h182.39c66.532 0 123.433 13.734 170.704 41.203 47.27 27.469 83.505 67.703 108.703 120.703 25.198 53 37.797 117.5 37.797 193.5s-12.599 140.334-37.797 193C505.005-108.927 468.771-68.828 421.5-41.297 374.23-13.766 317.328 0 250.797 0H68.407zm142.39-128.406h41.61c54.927 0 96.854-18.797 125.781-56.39 28.938-37.605 43.407-94.204 43.407-169.798 0-75.604-14.469-132.338-43.406-170.203-28.928-37.864-70.855-56.797-125.782-56.797h-41.61v453.188z"/></symbol><symbol id="al"><path transform="matrix(.001 0 0 -.001 -.066 .012)" d="M358.797 12c-38.26 0-70.828-9.068-97.703-27.203-26.865-18.136-47.365-41.333-61.5-69.594L196 0H66v-710h135.594v249.797c13.333-25.594 33.599-46.625 60.797-63.094C289.599-539.766 321.734-548 358.797-548c43.073 0 80.61 11.036 112.61 33.11 32 22.062 56.765 53.963 74.296 95.702C563.234-377.457 572-327.063 572-268c0 59.063-8.766 109.464-26.297 151.203-17.531 41.73-42.297 73.63-74.297 95.703C439.406.97 401.87 12 358.796 12zm-39.203-119.594c36.666 0 64.432-13.864 83.297-41.594 18.875-27.74 28.312-67.343 28.312-118.812 0-51.73-9.437-91.396-28.312-119-18.865-27.604-46.36-41.406-82.485-41.406-23.875 0-44.781 6.135-62.719 18.406-17.927 12.27-31.76 30.375-41.5 54.313-9.729 23.927-14.593 53.156-14.593 87.687 0 34 4.969 62.932 14.906 86.797 9.938 23.864 23.703 42.099 41.297 54.703 17.604 12.604 38.203 18.906 61.797 18.906z"/></symbol><use xlink:href="#ak" transform="matrix(23.04 0 0 -23.04 445.672 379.584)" fill="#1f6feb"/><use xlink:href="#v" transform="matrix(23.04 0 0 -23.04 458.97 379.86)" fill="#1f6feb"/><use xlink:href="#w" transform="matrix(23.04 0 0 -23.04 472.758 379.584)" fill="#1f6feb"/><use xlink:href="#v" transform="matrix(23.04 0 0 -23.04 486.618 379.86)" fill="#1f6feb"/><use xlink:href="#al" transform="matrix(23.04 0 0 -23.04 500.913 379.86)" fill="#1f6feb"/><use xlink:href="#v" transform="matrix(23.04 0 0 -23.04 514.266 379.86)" fill="#1f6feb"/><use xlink:href="#V" transform="matrix(23.04 0 0 -23.04 528.524 379.86)" fill="#1f6feb"/><use xlink:href="#U" transform="matrix(23.04 0 0 -23.04 541.998 379.86)" fill="#1f6feb"/><symbol id="am"><path transform="matrix(.001 0 0 -.001 -.038 .069)" d="M430 69 240-208h92L522 69h-92zM300 16c-56 0-103.5-14.333-142.5-43s-68.667-70.667-89-126S38-275.333 38-354c0-80 10.167-147.667 30.5-203s50-97.333 89-126S244-726 300-726s103.5 14.333 142.5 43 68.667 70.667 89 126S562-434 562-354c0 78.667-10.167 145.667-30.5 201s-50 97.333-89 126S356 16 300 16zm0-84c36.667 0 67.833-10.833 93.5-32.5s45.167-53.833 58.5-96.5c13.333-42.667 20-95 20-157s-6.667-114.5-20-157.5-32.833-75.5-58.5-97.5-56.833-33-93.5-33-67.833 11-93.5 33-45.167 54.5-58.5 97.5c-13.333 43-20 95.5-20 157.5s6.667 114.333 20 157 32.833 74.833 58.5 96.5S263.333-68 300-68z"/></symbol><symbol id="an"><path transform="matrix(.001 0 0 -.001 -.1 0)" d="M100 0v-710h86v670l-43-44h397V0H100z"/></symbol><symbol id="ao"><path transform="matrix(.001 0 0 -.001 -.05 0)" d="M247 0 50-530h92L300-86l158-444h92L353 0H247z"/></symbol><symbol id="ap"><path transform="matrix(.001 0 0 -.001 -.09 0)" d="M90 0v-710h200c78 0 136.833 17.333 176.5 52S526-576 526-516c0 29.333-7 55.667-21 79s-33.667 41.667-59 55c-25.333 13.333-54.667 20-88 20v-6c41.333 0 76.833 7 106.5 21s52.333 33.667 68 59c15.667 25.333 23.5 55.333 23.5 90 0 61.333-21.333 109.667-64 145S390.333 0 315 0H90zm86-84h140c51.333 0 89.167-10 113.5-30s36.5-48 36.5-84c0-38-12.667-67.667-38-89s-62.667-32-112-32H176v235zm0-319h118c49.333 0 85.333-9.667 108-29s34-46.667 34-82c0-36-11.333-63.667-34-83s-58.667-29-108-29H176v223z"/></symbol><use xlink:href="#j" transform="matrix(23.04 0 0 -23.04 560.172 379.584)"/><use xlink:href="#r" transform="matrix(23.04 0 0 -23.04 545.702 383.316)"/><use xlink:href="#f" transform="matrix(23.04 0 0 -23.04 583.488 379.584)"/><use xlink:href="#J" transform="matrix(23.04 0 0 -23.04 597.404 383.04)"/><use xlink:href="#P" transform="matrix(23.04 0 0 -23.04 610.998 379.953)"/><use xlink:href="#am" transform="matrix(23.04 0 0 -23.04 624.684 381.174)"/><use xlink:href="#an" transform="matrix(23.04 0 0 -23.04 639.936 379.584)"/><use xlink:href="#F" transform="matrix(23.04 0 0 -23.04 656.986 383.178)"/><use xlink:href="#r" transform="matrix(23.04 0 0 -23.04 642.47 383.316)"/><use xlink:href="#P" transform="matrix(23.04 0 0 -23.04 680.118 379.953)"/><use xlink:href="#am" transform="matrix(23.04 0 0 -23.04 693.803 381.174)"/><use xlink:href="#an" transform="matrix(23.04 0 0 -23.04 709.056 379.584)"/><use xlink:href="#r" transform="matrix(23.04 0 0 -23.04 697.766 383.316)"/><use xlink:href="#P" transform="matrix(23.04 0 0 -23.04 735.414 379.953)"/><use xlink:href="#B" transform="matrix(23.04 0 0 -23.04 749.745 379.86)"/><use xlink:href="#ag" transform="matrix(23.04 0 0 -23.04 764.122 379.584)"/><use xlink:href="#ao" transform="matrix(23.04 0 0 -23.04 777.024 379.584)"/><use xlink:href="#B" transform="matrix(23.04 0 0 -23.04 791.217 379.86)"/><use xlink:href="#ag" transform="matrix(23.04 0 0 -23.04 805.594 379.584)"/><use xlink:href="#F" transform="matrix(23.04 0 0 -23.04 822.874 383.178)"/><use xlink:href="#r" transform="matrix(23.04 0 0 -23.04 808.358 383.316)"/><use xlink:href="#f" transform="matrix(23.04 0 0 -23.04 846.144 379.584)"/><use xlink:href="#C" transform="matrix(23.04 0 0 -23.04 860.152 379.86)"/><use xlink:href="#D" transform="matrix(23.04 0 0 -23.04 874.575 379.584)"/><use xlink:href="#W" transform="matrix(23.04 0 0 -23.04 887.846 383.316)"/><use xlink:href="#C" transform="matrix(23.04 0 0 -23.04 901.624 379.86)"/><use xlink:href="#e" transform="matrix(23.04 0 0 -23.04 916.186 379.584)"/><use xlink:href="#ap" transform="matrix(23.04 0 0 -23.04 930.01 379.584)"/><use xlink:href="#K" transform="matrix(23.04 0 0 -23.04 408.701 370.492)"/><use xlink:href="#p" transform="matrix(23.04 0 0 -23.04 408.701 461.383)"/><use xlink:href="#q" transform="matrix(23.04 0 0 -23.04 416.439 449.401)"/><use xlink:href="#r" transform="matrix(23.04 0 0 -23.04 407.458 458.196)"/><symbol id="aq"><path transform="matrix(.001 0 0 -.001 -.044 0)" d="M257.203-98 156.797-522l17.61-3.594V0H44v-710h160l114.797 449.594h-37.594L396-710h160V0H425.594v-525.594l17.61 3.594L342.796-98h-85.594z"/></symbol><symbol id="ar"><path transform="matrix(.001 0 0 -.001 -.048 0)" d="M246 0v-540.406c0-20.125-5.302-35.49-15.906-46.094-10.594-10.604-25.959-15.906-46.094-15.906H68V-710h140.406c57.459 0 100.688 14.5 129.688 43.5 29 29 43.5 72.234 43.5 129.703V0H246zM48 0v-107.594h504V0H48z"/></symbol><use xlink:href="#aq" transform="matrix(23.04 0 0 -23.04 445.11 454.464)" fill="#1f6feb"/><use xlink:href="#v" transform="matrix(23.04 0 0 -23.04 458.97 454.74)" fill="#1f6feb"/><use xlink:href="#x" transform="matrix(23.04 0 0 -23.04 473.31 454.464)" fill="#1f6feb"/><use xlink:href="#ar" transform="matrix(23.04 0 0 -23.04 486.674 454.464)" fill="#1f6feb"/><use xlink:href="#j" transform="matrix(23.04 0 0 -23.04 504.875 454.464)"/><use xlink:href="#r" transform="matrix(23.04 0 0 -23.04 490.406 458.196)"/><symbol id="as"><path transform="matrix(.001 0 0 -.001 -.08 .15)" d="M80 150v-680h78l2 120-12-6c13.333-41.333 35.5-72.667 66.5-94s66.833-32 107.5-32c52.667 0 95.833 13 129.5 39S510-443 526-401s24 87.333 24 136-8 94-24 136-40.833 76-74.5 102S374.667 12 322 12c-27.333 0-52.833-4.667-76.5-14s-43.667-22.333-60-39S158-77.333 152-100l12-14v264H80zM314-68c46 0 82.167-17.333 108.5-52S462-203 462-265s-13.167-110.333-39.5-145S360-462 314-462c-30.667 0-57.167 7.333-79.5 22s-39.667 36.667-52 66c-12.333 29.333-18.5 65.667-18.5 109s6 79.667 18 109 29.333 51.333 52 66c22.667 14.667 49.333 22 80 22z"/></symbol><use xlink:href="#as" transform="matrix(23.04 0 0 -23.04 528.883 457.92)"/><use xlink:href="#A" transform="matrix(23.04 0 0 -23.04 542.707 454.464)"/><use xlink:href="#B" transform="matrix(23.04 0 0 -23.04 556.209 454.74)"/><use xlink:href="#E" transform="matrix(23.04 0 0 -23.04 569.664 454.464)"/><use xlink:href="#ag" transform="matrix(23.04 0 0 -23.04 584.41 454.464)"/><use xlink:href="#C" transform="matrix(23.04 0 0 -23.04 597.496 454.74)"/><symbol id="at"><path transform="matrix(.001 0 0 -.001 -.02 .11)" d="M428 70c-26.667 13.333-52.5 23.333-77.5 30-25 6.667-50.5 10-76.5 10-49.333 0-93.167-12.167-131.5-36.5s-68.333-62.667-90-115S20-161.667 20-245c0-77.333 7.833-145 23.5-203S81-554.5 109-593.5s60.833-68.167 98.5-87.5S286-710 330-710c54.667 0 100.5 14 137.5 42s65 66.5 84 115.5S580-446.667 580-382c0 80.667-6.333 143.167-19 187.5s-29.667 75.167-51 92.5-45.333 26-72 26c-22.667 0-41.667-9.833-57-29.5-15.333-19.667-25.667-45.167-31-76.5h10c-6 22-14.5 40.667-25.5 56-11 15.333-23.667 26.833-38 34.5C282.167-83.833 266.667-80 250-80c-33.333 0-59.333-15.5-78-46.5s-28-72.833-28-125.5c0-44 6.667-84.833 20-122.5s31.167-68.167 53.5-91.5 47.5-35 75.5-35c16 0 30 3.667 42 11s21.167 17.167 27.5 29.5c6.333 12.333 9.167 26.5 8.5 42.5l-10 11 11-93h70c-4.667 46.667-9 88-13 124s-7.167 67-9.5 93-3.5 47.667-3.5 65c0 24.667 3.333 43.167 10 55.5 6.667 12.333 14.667 18.5 24 18.5 12 0 22.5-7.333 31.5-22s16-39 21-73 7.5-80 7.5-138c0-54-6.333-100.667-19-140s-32.5-69.667-59.5-91-62.167-32-105.5-32c-32.667 0-63.333 8-92 24s-53.833 40.333-75.5 73S120-469.333 108-420 90-312.667 90-246s7.5 121.167 22.5 163.5S149-8.833 177 11.5 238 42 276 42c19.333 0 39.667-3.167 61-9.5S380 16.667 402 4l26 66zM274-142c10.667 0 20.833-5.167 30.5-15.5 9.667-10.333 18.333-24.5 26-42.5 7.667-18 13.667-38.5 18-61.5s6.5-47.167 6.5-72.5c0-33.333-4.5-58.167-13.5-74.5S319.333-433 302-433c-14.667 0-28 8.167-40 24.5s-21.667 37.667-29 64c-7.333 26.333-11 54.5-11 84.5 0 36 4.5 64.667 13.5 86s21.833 32 38.5 32z"/></symbol><use xlink:href="#at" transform="matrix(23.04 0 0 -23.04 610.445 456.998)"/><symbol id="au"><path transform="matrix(.001 0 0 -.001 -.09 .012)" d="M333 12c-36.667 0-69.333-8.167-98-24.5S184.333-51.333 169-80l-3 80H90v-710h84v254c13.333-22 34-41.833 62-59.5s60.333-26.5 97-26.5c46.667 0 87 11.333 121 34s60.167 54.667 78.5 96S560-321.667 560-265s-9.167 105.667-27.5 147S488-44.667 454-22s-74.333 34-121 34zm-5-80c44.667 0 79.833-17.667 105.5-53S472-204.333 472-265c0-61.333-12.833-109.5-38.5-144.5S373.333-462 330-462c-32.667 0-60.667 7.833-84 23.5s-41.167 38.167-53.5 67.5c-12.333 29.333-18.5 64.667-18.5 106 0 40 6.167 74.833 18.5 104.5s30 52.5 53 68.5S296-68 328-68z"/></symbol><symbol id="av"><path transform="matrix(.001 0 0 -.001 -.082 0)" d="M82 0v-84l336-372H92v-74h418v84L174-74h344V0H82z"/></symbol><use xlink:href="#au" transform="matrix(23.04 0 0 -23.04 625.882 454.74)"/><use xlink:href="#C" transform="matrix(23.04 0 0 -23.04 638.968 454.74)"/><use xlink:href="#X" transform="matrix(23.04 0 0 -23.04 653.3 454.74)"/><use xlink:href="#A" transform="matrix(23.04 0 0 -23.04 667.123 454.464)"/><use xlink:href="#C" transform="matrix(23.04 0 0 -23.04 680.44 454.74)"/><use xlink:href="#g" transform="matrix(23.04 0 0 -23.04 698.412 454.464)"/><use xlink:href="#av" transform="matrix(23.04 0 0 -23.04 708.641 454.464)"/><use xlink:href="#A" transform="matrix(23.04 0 0 -23.04 722.42 454.464)"/><use xlink:href="#as" transform="matrix(23.04 0 0 -23.04 736.243 457.92)"/><use xlink:href="#K" transform="matrix(23.04 0 0 -23.04 408.701 445.372)"/><use xlink:href="#p" transform="matrix(23.04 0 0 -23.04 408.701 491.335)"/><use xlink:href="#q" transform="matrix(23.04 0 0 -23.04 416.439 479.353)"/><use xlink:href="#r" transform="matrix(23.04 0 0 -23.04 407.458 488.148)"/><use xlink:href="#ak" transform="matrix(23.04 0 0 -23.04 445.672 484.416)" fill="#1f6feb"/><use xlink:href="#x" transform="matrix(23.04 0 0 -23.04 459.487 484.416)" fill="#1f6feb"/><use xlink:href="#V" transform="matrix(23.04 0 0 -23.04 473.228 484.692)" fill="#1f6feb"/><use xlink:href="#u" transform="matrix(23.04 0 0 -23.04 486.738 484.692)" fill="#1f6feb"/><use xlink:href="#t" transform="matrix(23.04 0 0 -23.04 500.452 484.692)" fill="#1f6feb"/><use xlink:href="#ab" transform="matrix(23.04 0 0 -23.04 514.875 484.416)" fill="#1f6feb"/><use xlink:href="#M" transform="matrix(23.04 0 0 -23.04 527.685 484.692)" fill="#1f6feb"/><use xlink:href="#j" transform="matrix(23.04 0 0 -23.04 546.347 484.416)"/><use xlink:href="#r" transform="matrix(23.04 0 0 -23.04 531.878 488.148)"/><use xlink:href="#at" transform="matrix(23.04 0 0 -23.04 568.973 486.95)"/><symbol id="aw"><path transform="matrix(.001 0 0 -.001 -.07 .012)" d="M314 12C264.667 12 221.667.667 185-22s-65-54.833-85-96.5S70-209 70-265s10-104.667 30-146 48.333-73.5 85-96.5S264.667-542 314-542c39.333 0 74.333 7.167 105 21.5s56 35.167 76 62.5 33.667 60.667 41 100l-88 6c-8-35.333-23.833-62.5-47.5-81.5S348-462 314-462c-48.667 0-86.833 17.5-114.5 52.5S158-326.333 158-265s13.833 109.5 41.5 144.5S265.333-68 314-68c34 0 63.5-10 88.5-30s41.5-50 49.5-90l88 6c-7.333 39.333-21.333 73.5-42 102.5S451.333-28 420-12s-66.667 24-106 24z"/></symbol><use xlink:href="#aw" transform="matrix(23.04 0 0 -23.04 583.949 484.692)"/><use xlink:href="#C" transform="matrix(23.04 0 0 -23.04 597.496 484.692)"/><use xlink:href="#D" transform="matrix(23.04 0 0 -23.04 611.92 484.416)"/><use xlink:href="#E" transform="matrix(23.04 0 0 -23.04 624.96 484.416)"/><use xlink:href="#ag" transform="matrix(23.04 0 0 -23.04 639.706 484.416)"/><use xlink:href="#C" transform="matrix(23.04 0 0 -23.04 652.792 484.692)"/><use xlink:href="#I" transform="matrix(23.04 0 0 -23.04 666.662 484.416)"/><use xlink:href="#I" transform="matrix(23.04 0 0 -23.04 680.486 484.416)"/><use xlink:href="#C" transform="matrix(23.04 0 0 -23.04 694.264 484.692)"/><use xlink:href="#K" transform="matrix(23.04 0 0 -23.04 408.701 475.324)"/><use xlink:href="#p" transform="matrix(23.04 0 0 -23.04 408.701 521.287)"/><use xlink:href="#q" transform="matrix(23.04 0 0 -23.04 416.439 509.305)"/><use xlink:href="#r" transform="matrix(23.04 0 0 -23.04 407.458 518.1)"/><use xlink:href="#s" transform="matrix(23.04 0 0 -23.04 446.262 514.368)" fill="#1f6feb"/><use xlink:href="#x" transform="matrix(23.04 0 0 -23.04 459.487 514.368)" fill="#1f6feb"/><use xlink:href="#y" transform="matrix(23.04 0 0 -23.04 473.403 514.368)" fill="#1f6feb"/><use xlink:href="#ai" transform="matrix(23.04 0 0 -23.04 486.95 514.368)" fill="#1f6feb"/><use xlink:href="#U" transform="matrix(23.04 0 0 -23.04 500.526 514.644)" fill="#1f6feb"/><use xlink:href="#M" transform="matrix(23.04 0 0 -23.04 513.861 514.644)" fill="#1f6feb"/><use xlink:href="#x" transform="matrix(23.04 0 0 -23.04 528.607 514.368)" fill="#1f6feb"/><use xlink:href="#y" transform="matrix(23.04 0 0 -23.04 542.523 514.368)" fill="#1f6feb"/><symbol id="ax"><path transform="matrix(.001 0 0 -.001 -.14 -.252)" d="M140-331h320v79H140z"/></symbol><use xlink:href="#j" transform="matrix(23.04 0 0 -23.04 560.172 514.368)"/><use xlink:href="#r" transform="matrix(23.04 0 0 -23.04 545.702 518.1)"/><use xlink:href="#au" transform="matrix(23.04 0 0 -23.04 584.41 514.644)"/><use xlink:href="#C" transform="matrix(23.04 0 0 -23.04 597.496 514.644)"/><use xlink:href="#X" transform="matrix(23.04 0 0 -23.04 611.827 514.644)"/><use xlink:href="#A" transform="matrix(23.04 0 0 -23.04 625.651 514.368)"/><use xlink:href="#C" transform="matrix(23.04 0 0 -23.04 638.968 514.644)"/><use xlink:href="#ax" transform="matrix(23.04 0 0 -23.04 654.682 508.562)"/><use xlink:href="#as" transform="matrix(23.04 0 0 -23.04 667.123 517.824)"/><use xlink:href="#A" transform="matrix(23.04 0 0 -23.04 680.947 514.368)"/><use xlink:href="#B" transform="matrix(23.04 0 0 -23.04 694.449 514.644)"/><use xlink:href="#E" transform="matrix(23.04 0 0 -23.04 707.904 514.368)"/><use xlink:href="#ag" transform="matrix(23.04 0 0 -23.04 722.65 514.368)"/><use xlink:href="#C" transform="matrix(23.04 0 0 -23.04 735.736 514.644)"/><use xlink:href="#K" transform="matrix(23.04 0 0 -23.04 408.701 505.276)"/><use xlink:href="#Z" transform="matrix(23.04 0 0 -23.04 408.701 539.257)"/><use xlink:href="#q" transform="matrix(23.04 0 0 -23.04 416.439 539.257)"/><use xlink:href="#r" transform="matrix(23.04 0 0 -23.04 407.458 548.052)"/><symbol id="ay"><path transform="matrix(.001 0 0 -.001 -.024 0)" d="M97.203 0 24-710h134.406l44.39 552h-13.593l65.39-472h90.813l65.39 472h-13.593l44.39-552H576L502.797 0h-150.39L288-440h24L247.594 0H97.204z"/></symbol><use xlink:href="#ay" transform="matrix(23.04 0 0 -23.04 444.649 544.32)" fill="#1f6feb"/><use xlink:href="#U" transform="matrix(23.04 0 0 -23.04 459.054 544.596)" fill="#1f6feb"/><use xlink:href="#al" transform="matrix(23.04 0 0 -23.04 473.265 544.596)" fill="#1f6feb"/><use xlink:href="#V" transform="matrix(23.04 0 0 -23.04 487.052 544.596)" fill="#1f6feb"/><use xlink:href="#x" transform="matrix(23.04 0 0 -23.04 500.959 544.32)" fill="#1f6feb"/><use xlink:href="#w" transform="matrix(23.04 0 0 -23.04 514.23 544.32)" fill="#1f6feb"/><use xlink:href="#U" transform="matrix(23.04 0 0 -23.04 528.174 544.596)" fill="#1f6feb"/><use xlink:href="#j" transform="matrix(23.04 0 0 -23.04 546.347 544.32)"/><use xlink:href="#r" transform="matrix(23.04 0 0 -23.04 531.878 548.052)"/><use xlink:href="#au" transform="matrix(23.04 0 0 -23.04 570.586 544.596)"/><use xlink:href="#C" transform="matrix(23.04 0 0 -23.04 583.672 544.596)"/><use xlink:href="#X" transform="matrix(23.04 0 0 -23.04 598.003 544.596)"/><use xlink:href="#A" transform="matrix(23.04 0 0 -23.04 611.827 544.32)"/><use xlink:href="#C" transform="matrix(23.04 0 0 -23.04 625.144 544.596)"/><use xlink:href="#g" transform="matrix(23.04 0 0 -23.04 643.115 544.32)"/><use xlink:href="#av" transform="matrix(23.04 0 0 -23.04 653.345 544.32)"/><use xlink:href="#A" transform="matrix(23.04 0 0 -23.04 667.123 544.32)"/><use xlink:href="#as" transform="matrix(23.04 0 0 -23.04 680.947 547.776)"/><use xlink:href="#K" transform="matrix(23.04 0 0 -23.04 408.701 535.228)"/><symbol id="az"><path transform="matrix(.001 0 0 -.001 -.019 0)" d="m18.797 0 194.406-710h173.594L581.203 0h-143.61L300-538.406 162.406 0H18.796zM150-151l36-124.203h228L450-151H150z"/></symbol><use xlink:href="#az" transform="matrix(23.04 0 0 -23.04 430.705 124.992)"/><use xlink:href="#al" transform="matrix(23.04 0 0 -23.04 445.617 125.268)"/><use xlink:href="#t" transform="matrix(23.04 0 0 -23.04 458.98 125.268)"/><use xlink:href="#N" transform="matrix(23.04 0 0 -23.04 473.458 125.268)"/><use xlink:href="#w" transform="matrix(23.04 0 0 -23.04 486.582 124.992)"/><symbol id="aA"><path d="M.215.43A.22.22 0 0 0 .321.402.218.218 0 0 0 .43.215C.43.155.408.105.366.063A.207.207 0 0 0 .215 0c-.06 0-.11.021-.152.063A.216.216 0 0 0 .215.43z"/></symbol><use xlink:href="#aA" transform="matrix(27.648 0 0 -27.648 404.511 124.755)" fill="#1f6feb"/><use xlink:href="#aB" transform="matrix(27.648 0 0 -27.648 419.251 131.084)" fill="#1f6feb"/><symbol id="aC"><path transform="matrix(.001 0 0 -.001 -.042 .016)" d="M305.594 16C252 16 206.167 5.667 168.094-15c-38.063-20.667-67.662-50.068-88.797-88.203-21.136-38.136-33.703-83.802-37.703-137L185-247.406c4.27 30.541 11.938 56.047 23 76.515 11.063 20.459 25.396 35.724 43 45.797C268.604-115.03 289.27-110 313-110c21.333 0 39.531-2.964 54.594-8.89 15.073-5.938 26.64-14.771 34.703-26.5 8.073-11.74 12.11-25.943 12.11-42.61 0-18.27-4.37-34.302-13.11-48.094-8.73-13.802-23.964-26.437-45.703-37.906-21.73-11.469-52.26-22.27-91.594-32.406-47.333-12-86.469-26.334-117.406-43-30.927-16.667-53.828-37.896-68.703-63.688-14.865-25.802-22.297-58.37-22.297-97.703 0-43.604 9.5-81.573 28.5-113.906 19-32.333 46.765-57.297 83.297-74.89C203.932-717.199 248.135-726 300-726c50.667 0 93.932 9.333 129.797 28 35.864 18.667 63.963 45.703 84.297 81.11 20.333 35.395 32.37 78.359 36.11 128.89l-144.61 6.594c-3.198-24.667-9.433-45.865-18.703-63.594-9.26-17.73-21.693-31.328-37.297-40.797C334-595.266 315.4-600 293.797-600c-28.802 0-51.703 7.401-68.703 22.203s-25.5 34.599-25.5 59.39c0 17.21 4.234 31.782 12.703 43.72 8.469 11.927 23.135 22.593 44 32 20.864 9.395 49.833 18.822 86.906 28.28 54 13.21 96.667 30.011 128 50.407 31.333 20.396 53.698 44.63 67.094 72.703 13.406 28.063 20.11 60.76 20.11 98.094 0 42.531-10.136 79.432-30.407 110.703-20.27 31.27-49.24 55.505-86.906 72.703C403.427 7.401 358.26 16 305.594 16z"/></symbol><use xlink:href="#aC" transform="matrix(23.04 0 0 -23.04 431.23 290.097)"/><use xlink:href="#ai" transform="matrix(23.04 0 0 -23.04 445.478 289.728)"/><use xlink:href="#x" transform="matrix(23.04 0 0 -23.04 459.487 289.728)"/><use xlink:href="#ar" transform="matrix(23.04 0 0 -23.04 472.85 289.728)"/><use xlink:href="#ar" transform="matrix(23.04 0 0 -23.04 486.674 289.728)"/><use xlink:href="#V" transform="matrix(23.04 0 0 -23.04 500.876 290.005)"/><use xlink:href="#aA" transform="matrix(27.648 0 0 -27.648 404.511 289.491)" fill="#1f6feb"/><use xlink:href="#aB" transform="matrix(27.648 0 0 -27.648 419.251 295.82)" fill="#1f6feb"/><use xlink:href="#aC" transform="matrix(23.04 0 0 -23.04 431.23 424.88)"/><use xlink:href="#t" transform="matrix(23.04 0 0 -23.04 445.156 424.788)"/><use xlink:href="#u" transform="matrix(23.04 0 0 -23.04 459.09 424.788)"/><use xlink:href="#x" transform="matrix(23.04 0 0 -23.04 473.31 424.512)"/><use xlink:href="#v" transform="matrix(23.04 0 0 -23.04 486.618 424.788)"/><use xlink:href="#ar" transform="matrix(23.04 0 0 -23.04 500.498 424.512)"/><use xlink:href="#V" transform="matrix(23.04 0 0 -23.04 514.7 424.788)"/><use xlink:href="#aA" transform="matrix(27.648 0 0 -27.648 404.511 424.275)" fill="#1f6feb"/><use xlink:href="#aB" transform="matrix(27.648 0 0 -27.648 419.251 430.604)" fill="#1f6feb"/></g></svg>